<svg width="27" height="27" viewBox="0 0 27 27" fill="none" xmlns="http://www.w3.org/2000/svg">
<path d="M0.300781 13.1495C0.300781 5.88725 6.18803 0 13.4503 0V0C20.7126 0 26.5998 5.88725 26.5998 13.1495V13.1495C26.5998 20.4118 20.7126 26.2991 13.4503 26.2991V26.2991C6.18803 26.2991 0.300781 20.4118 0.300781 13.1495V13.1495Z" fill="white" fill-opacity="0.1"/>
<path d="M13.4503 25.8294C6.44739 25.8294 0.770407 20.1525 0.770407 13.1495C0.770407 6.14661 6.44739 0.469626 13.4503 0.469626C20.4532 0.469626 26.1302 6.14661 26.1302 13.1495C26.1302 20.1525 20.4532 25.8294 13.4503 25.8294Z" stroke="white" stroke-opacity="0.3" stroke-width="0.939252"/>
<path d="M18.1146 14.4829C19.1079 13.5095 20.1146 12.3429 20.1146 10.8162C20.1146 9.84374 19.7283 8.91111 19.0406 8.22348C18.353 7.53584 17.4204 7.14954 16.4479 7.14954C15.5807 7.14954 14.9029 7.33161 14.2045 7.83034C13.7551 8.15129 13.1408 8.15129 12.6913 7.83034C11.9929 7.33161 11.3151 7.14954 10.4479 7.14954C9.47546 7.14954 8.54283 7.53584 7.85519 8.22348C7.16756 8.91111 6.78125 9.84374 6.78125 10.8162C6.78125 12.3495 7.78125 13.5162 8.78125 14.4829L12.7408 18.4424C13.1313 18.833 13.7645 18.833 14.155 18.4424L18.1146 14.4829Z" fill="#FFE684"/>
</svg>