   <svg width="28" height="17" viewBox="0 0 28 17" fill="none" xmlns="http://www.w3.org/2000/svg">
      <path d="M21.7292 14.0208V16.2291H8.47917V14.0208C8.47917 14.0208 8.47917 9.60409 15.1042 9.60409C21.7292 9.60409 21.7292 14.0208 21.7292 14.0208ZM18.4167 4.08325C18.4167 3.4281 18.2224 2.78766 17.8584 2.24293C17.4944 1.69819 16.9771 1.27362 16.3718 1.0229C15.7665 0.772187 15.1005 0.706589 14.4579 0.834402C13.8154 0.962216 13.2251 1.2777 12.7619 1.74096C12.2986 2.20422 11.9831 2.79445 11.8553 3.43702C11.7275 4.07958 11.7931 4.74561 12.0438 5.35089C12.2945 5.95617 12.7191 6.47351 13.2638 6.8375C13.8086 7.20148 14.449 7.39575 15.1042 7.39575C15.9827 7.39575 16.8252 7.04676 17.4465 6.42555C18.0677 5.80433 18.4167 4.96178 18.4167 4.08325ZM21.95 9.67034C22.5536 10.2272 23.0402 10.8987 23.3814 11.6456C23.7227 12.3925 23.9117 13.2 23.9375 14.0208V16.2291H27.25V14.0208C27.25 14.0208 27.25 10.2114 21.95 9.67034ZM20.625 0.770753C20.2914 0.770773 19.9598 0.82293 19.6423 0.925336C20.2883 1.8517 20.6346 2.95389 20.6346 4.08325C20.6346 5.21261 20.2883 6.31481 19.6423 7.24117C19.9598 7.34358 20.2914 7.39573 20.625 7.39575C21.5035 7.39575 22.3461 7.04676 22.9673 6.42555C23.5885 5.80433 23.9375 4.96178 23.9375 4.08325C23.9375 3.20472 23.5885 2.36218 22.9673 1.74096C22.3461 1.11975 21.5035 0.770753 20.625 0.770753ZM9.58333 6.29159H6.27083V2.97909H4.0625V6.29159H0.75V8.49992H4.0625V11.8124H6.27083V8.49992H9.58333V6.29159Z" fill="white"/>
    </svg>