<svg width="80" height="82" viewBox="0 0 80 82" fill="none" xmlns="http://www.w3.org/2000/svg">
<path fill-rule="evenodd" clip-rule="evenodd" d="M50.9894 2.33798C53.7645 0.779327 57.11 0 61.0256 0C64.9032 0 68.2676 0.779327 71.1188 2.33798C73.932 3.85862 76.0989 6.06355 77.6196 8.95276C79.1402 11.842 79.9005 15.3204 79.9005 19.3881C79.9005 23.4558 79.1402 26.9343 77.6196 29.8235C76.0989 32.7127 73.932 34.9367 71.1188 36.4953C68.2676 38.016 64.9032 38.7763 61.0256 38.7763C57.11 38.7763 53.7645 38.016 50.9894 36.4953C48.1762 34.9367 46.0283 32.7127 44.5457 29.8235C43.025 26.9343 42.2647 23.4558 42.2647 19.3881C42.2647 15.3204 43.025 11.842 44.5457 8.95276C46.0283 6.06355 48.1762 3.85862 50.9894 2.33798ZM8.82407 2.33798C11.5992 0.779327 14.9446 0 18.8603 0C22.7379 0 26.1023 0.779327 28.9535 2.33798C31.7667 3.85862 33.9336 6.06355 35.4542 8.95276C36.9749 11.842 37.7352 15.3204 37.7352 19.3881C37.7352 23.4558 36.9749 26.9343 35.4542 29.8235C33.9336 32.7127 31.7667 34.9367 28.9535 36.4953C26.1023 38.016 22.7379 38.7763 18.8603 38.7763C14.9446 38.7763 11.5992 38.016 8.82407 36.4953C6.01089 34.9367 3.86299 32.7127 2.38037 29.8235C0.859734 26.9343 0.099411 23.4558 0.099411 19.3881C0.099411 15.3204 0.859734 11.842 2.38037 8.95276C3.86299 6.06355 6.01089 3.85862 8.82407 2.33798ZM18.8603 42.2479C14.9446 42.2479 11.5992 43.0272 8.82407 44.5859C6.01089 46.1065 3.86299 48.3114 2.38037 51.2007C0.859734 54.0899 0.099411 57.5683 0.099411 61.636C0.099411 65.7037 0.859734 69.1822 2.38037 72.0714C3.86299 74.9606 6.01089 77.1846 8.82407 78.7432C11.5992 80.2639 14.9446 81.0242 18.8603 81.0242C22.7379 81.0242 26.1023 80.2639 28.9535 78.7432C31.7667 77.1846 33.9336 74.9606 35.4542 72.0714C36.9749 69.1822 37.7352 65.7037 37.7352 61.636C37.7352 57.5683 36.9749 54.0899 35.4542 51.2007C33.9336 48.3114 31.7667 46.1065 28.9535 44.5859C26.1023 43.0272 22.7379 42.2479 18.8603 42.2479ZM50.5601 44.8824C53.3353 43.3237 56.6807 42.5444 60.5964 42.5444C64.474 42.5444 67.8384 43.3237 70.6896 44.8824C73.5028 46.403 75.6697 48.6079 77.1903 51.4972C78.711 54.3864 79.4713 57.8648 79.4713 61.9325C79.4713 66.0002 78.711 69.4787 77.1903 72.3679C75.6697 75.2571 73.5028 77.4811 70.6896 79.0397C67.8384 80.5603 64.474 81.3207 60.5964 81.3207C56.6807 81.3207 53.3353 80.5603 50.5601 79.0397C47.747 77.4811 45.5991 75.2571 44.1164 72.3679C42.5958 69.4787 41.8355 66.0002 41.8355 61.9325C41.8355 57.8648 42.5958 54.3864 44.1164 51.4972C45.5991 48.6079 47.747 46.403 50.5601 44.8824Z" fill="url(#paint0_linear_1871_16537)"/>
<path d="M10.707 13.1758L26.9272 27.0788M26.9272 13.1758L10.707 27.0788" stroke="#1F1F1F" stroke-width="4.63435" stroke-linejoin="bevel"/>
<path d="M53.1697 55.4219L69.3899 69.3249M69.3899 55.4219L53.1697 69.3249" stroke="#1F1F1F" stroke-width="4.63435" stroke-linejoin="bevel"/>
<path fill-rule="evenodd" clip-rule="evenodd" d="M53.9077 13.6995C56.1375 11.4697 59.7527 11.4697 61.9826 13.6995C62.0706 13.7876 62.2134 13.7876 62.3014 13.6995L62.3057 13.6953C64.5355 11.4655 68.1508 11.4655 70.3806 13.6953C72.6104 15.9251 72.6104 19.5404 70.3806 21.7702L70.2179 21.9328C70.2174 21.9334 70.2174 21.9343 70.2179 21.9349C70.2185 21.9355 70.2185 21.9364 70.2179 21.9369L64.2126 27.9423C63.0702 29.0847 61.2179 29.0847 60.0755 27.9422L53.9077 21.7744C51.6778 19.5446 51.6778 15.9293 53.9077 13.6995Z" fill="#1F1F1F"/>
<path fill-rule="evenodd" clip-rule="evenodd" d="M10.3912 57.1304C12.6723 54.8493 16.3706 54.8493 18.6517 57.1304C18.7421 57.2208 18.8888 57.2208 18.9793 57.1304L18.9823 57.1274C21.2633 54.8463 24.9617 54.8463 27.2427 57.1274C29.5238 59.4084 29.5238 63.1068 27.2427 65.3878L27.0766 65.5539C27.0762 65.5543 27.0762 65.555 27.0766 65.5554C27.077 65.5557 27.077 65.5564 27.0766 65.5568L20.933 71.7004C19.7643 72.8691 17.8695 72.8691 16.7008 71.7004L10.3912 65.3909C8.11015 63.1098 8.11015 59.4115 10.3912 57.1304Z" fill="#1F1F1F"/>
<defs>
<linearGradient id="paint0_linear_1871_16537" x1="90.5785" y1="40.6603" x2="-6.0739" y2="40.6603" gradientUnits="userSpaceOnUse">
<stop stop-color="#FF56F8"/>
<stop offset="1" stop-color="#B6E300"/>
</linearGradient>
</defs>
</svg>
