<svg width="176" height="107" viewBox="0 0 176 107" fill="none" xmlns="http://www.w3.org/2000/svg">
<mask id="path-1-outside-1_2020_38387" maskUnits="userSpaceOnUse" x="55.8916" y="0" width="64" height="65" fill="black">
<rect fill="white" x="55.8916" width="64" height="65"/>
<path fill-rule="evenodd" clip-rule="evenodd" d="M95.957 4.69293C97.9665 3.56431 100.389 3 103.224 3C106.032 3 108.468 3.56431 110.533 4.69293C112.57 5.79403 114.139 7.39062 115.24 9.4827C116.341 11.5748 116.892 14.0935 116.892 17.039C116.892 19.9844 116.341 22.5032 115.24 24.5952C114.139 26.6873 112.57 28.2977 110.533 29.4263C108.468 30.5274 106.032 31.0779 103.224 31.0779C100.389 31.0779 97.9665 30.5274 95.957 29.4263C93.92 28.2977 92.3647 26.6873 91.2911 24.5952C90.19 22.5032 89.6395 19.9844 89.6395 17.039C89.6395 14.0935 90.19 11.5748 91.2911 9.4827C92.3647 7.39062 93.92 5.79403 95.957 4.69293ZM65.426 4.69293C67.4355 3.56431 69.8579 3 72.6932 3C75.501 3 77.9372 3.56431 80.0017 4.69293C82.0388 5.79403 83.6078 7.39062 84.7089 9.4827C85.81 11.5748 86.3606 14.0935 86.3606 17.039C86.3606 19.9844 85.81 22.5032 84.7089 24.5952C83.6078 26.6873 82.0388 28.2977 80.0017 29.4263C77.9372 30.5274 75.501 31.0779 72.6932 31.0779C69.8579 31.0779 67.4355 30.5274 65.426 29.4263C63.389 28.2977 61.8337 26.6873 60.7601 24.5952C59.659 22.5032 59.1085 19.9844 59.1085 17.039C59.1085 14.0935 59.659 11.5748 60.7601 9.4827C61.8337 7.39062 63.389 5.79403 65.426 4.69293ZM72.6932 33.5903C69.8579 33.5903 67.4355 34.1546 65.426 35.2833C63.389 36.3844 61.8337 37.981 60.7601 40.073C59.659 42.1651 59.1085 44.6839 59.1085 47.6293C59.1085 50.5747 59.659 53.0935 60.7601 55.1856C61.8337 57.2777 63.389 58.888 65.426 60.0166C67.4355 61.1177 69.8579 61.6683 72.6932 61.6683C75.501 61.6683 77.9372 61.1177 80.0017 60.0166C82.0388 58.888 83.6078 57.2777 84.7089 55.1856C85.81 53.0935 86.3606 50.5747 86.3606 47.6293C86.3606 44.6839 85.81 42.1651 84.7089 40.073C83.6078 37.981 82.0388 36.3844 80.0017 35.2833C77.9372 34.1546 75.501 33.5903 72.6932 33.5903ZM95.6457 35.5205C97.6552 34.3918 100.078 33.8275 102.913 33.8275C105.721 33.8275 108.157 34.3918 110.221 35.5205C112.259 36.6215 113.828 38.2181 114.929 40.3102C116.03 42.4023 116.58 44.9211 116.58 47.8665C116.58 50.8119 116.03 53.3307 114.929 55.4228C113.828 57.5148 112.259 59.1252 110.221 60.2538C108.157 61.3549 105.721 61.9055 102.913 61.9055C100.078 61.9055 97.6552 61.3549 95.6457 60.2538C93.6087 59.1252 92.0534 57.5148 90.9798 55.4228C89.8787 53.3307 89.3282 50.8119 89.3282 47.8665C89.3282 44.9211 89.8787 42.4023 90.9798 40.3102C92.0534 38.2181 93.6087 36.6215 95.6457 35.5205Z"/>
</mask>
<path fill-rule="evenodd" clip-rule="evenodd" d="M95.957 4.69293C97.9665 3.56431 100.389 3 103.224 3C106.032 3 108.468 3.56431 110.533 4.69293C112.57 5.79403 114.139 7.39062 115.24 9.4827C116.341 11.5748 116.892 14.0935 116.892 17.039C116.892 19.9844 116.341 22.5032 115.24 24.5952C114.139 26.6873 112.57 28.2977 110.533 29.4263C108.468 30.5274 106.032 31.0779 103.224 31.0779C100.389 31.0779 97.9665 30.5274 95.957 29.4263C93.92 28.2977 92.3647 26.6873 91.2911 24.5952C90.19 22.5032 89.6395 19.9844 89.6395 17.039C89.6395 14.0935 90.19 11.5748 91.2911 9.4827C92.3647 7.39062 93.92 5.79403 95.957 4.69293ZM65.426 4.69293C67.4355 3.56431 69.8579 3 72.6932 3C75.501 3 77.9372 3.56431 80.0017 4.69293C82.0388 5.79403 83.6078 7.39062 84.7089 9.4827C85.81 11.5748 86.3606 14.0935 86.3606 17.039C86.3606 19.9844 85.81 22.5032 84.7089 24.5952C83.6078 26.6873 82.0388 28.2977 80.0017 29.4263C77.9372 30.5274 75.501 31.0779 72.6932 31.0779C69.8579 31.0779 67.4355 30.5274 65.426 29.4263C63.389 28.2977 61.8337 26.6873 60.7601 24.5952C59.659 22.5032 59.1085 19.9844 59.1085 17.039C59.1085 14.0935 59.659 11.5748 60.7601 9.4827C61.8337 7.39062 63.389 5.79403 65.426 4.69293ZM72.6932 33.5903C69.8579 33.5903 67.4355 34.1546 65.426 35.2833C63.389 36.3844 61.8337 37.981 60.7601 40.073C59.659 42.1651 59.1085 44.6839 59.1085 47.6293C59.1085 50.5747 59.659 53.0935 60.7601 55.1856C61.8337 57.2777 63.389 58.888 65.426 60.0166C67.4355 61.1177 69.8579 61.6683 72.6932 61.6683C75.501 61.6683 77.9372 61.1177 80.0017 60.0166C82.0388 58.888 83.6078 57.2777 84.7089 55.1856C85.81 53.0935 86.3606 50.5747 86.3606 47.6293C86.3606 44.6839 85.81 42.1651 84.7089 40.073C83.6078 37.981 82.0388 36.3844 80.0017 35.2833C77.9372 34.1546 75.501 33.5903 72.6932 33.5903ZM95.6457 35.5205C97.6552 34.3918 100.078 33.8275 102.913 33.8275C105.721 33.8275 108.157 34.3918 110.221 35.5205C112.259 36.6215 113.828 38.2181 114.929 40.3102C116.03 42.4023 116.58 44.9211 116.58 47.8665C116.58 50.8119 116.03 53.3307 114.929 55.4228C113.828 57.5148 112.259 59.1252 110.221 60.2538C108.157 61.3549 105.721 61.9055 102.913 61.9055C100.078 61.9055 97.6552 61.3549 95.6457 60.2538C93.6087 59.1252 92.0534 57.5148 90.9798 55.4228C89.8787 53.3307 89.3282 50.8119 89.3282 47.8665C89.3282 44.9211 89.8787 42.4023 90.9798 40.3102C92.0534 38.2181 93.6087 36.6215 95.6457 35.5205Z" fill="url(#paint0_linear_2020_38387)"/>
<path d="M95.957 4.69293L97.3979 7.25841L97.3771 7.27007L97.3562 7.2814L95.957 4.69293ZM110.533 4.69293L109.134 7.28143L109.121 7.27475L110.533 4.69293ZM115.24 9.4827L112.636 10.8531V10.8531L115.24 9.4827ZM115.24 24.5952L117.844 25.9657L117.844 25.9657L115.24 24.5952ZM110.533 29.4263L111.959 32.0001L111.938 32.0115L111.917 32.0225L110.533 29.4263ZM95.957 29.4263L94.5431 32.0067L94.531 32.0001L95.957 29.4263ZM91.2911 24.5952L93.8949 23.2248L93.902 23.2383L93.909 23.2519L91.2911 24.5952ZM91.2911 9.4827L93.909 10.8261L93.902 10.8396L93.8949 10.8531L91.2911 9.4827ZM65.426 4.69293L66.8669 7.25841L66.8461 7.27007L66.8252 7.2814L65.426 4.69293ZM80.0017 4.69293L78.6026 7.28143L78.5903 7.27475L80.0017 4.69293ZM84.7089 9.4827L87.3127 8.11228L87.3127 8.11228L84.7089 9.4827ZM84.7089 24.5952L87.3127 25.9657L87.3127 25.9657L84.7089 24.5952ZM80.0017 29.4263L81.4277 32.0001L81.4072 32.0115L81.3864 32.0225L80.0017 29.4263ZM65.426 29.4263L64.012 32.0067L64 32.0001L65.426 29.4263ZM60.7601 24.5952L63.3639 23.2248L63.371 23.2383L63.3779 23.2519L60.7601 24.5952ZM60.7601 9.4827L63.3779 10.8261L63.371 10.8396L63.3639 10.8531L60.7601 9.4827ZM65.426 35.2833L66.8669 37.8487L66.8461 37.8604L66.8252 37.8717L65.426 35.2833ZM60.7601 40.073L63.3779 41.4164L63.371 41.43L63.3639 41.4435L60.7601 40.073ZM60.7601 55.1856L63.3639 53.8152L63.371 53.8286L63.3779 53.8422L60.7601 55.1856ZM65.426 60.0166L64.012 62.5971L64 62.5904L65.426 60.0166ZM80.0017 60.0166L81.4277 62.5904L81.4072 62.6018L81.3864 62.6129L80.0017 60.0166ZM84.7089 55.1856L87.3127 56.556V56.556L84.7089 55.1856ZM84.7089 40.073L87.3127 38.7026V38.7026L84.7089 40.073ZM80.0017 35.2833L78.6025 37.8718L78.5903 37.8651L80.0017 35.2833ZM95.6457 35.5205L97.0866 38.0859L97.0658 38.0976L97.0449 38.1089L95.6457 35.5205ZM110.221 35.5205L108.822 38.1089L108.81 38.1023L110.221 35.5205ZM114.929 40.3102L112.325 41.6806L114.929 40.3102ZM114.929 55.4228L117.532 56.7932L117.532 56.7932L114.929 55.4228ZM110.221 60.2538L111.647 62.8276L111.627 62.839L111.606 62.8501L110.221 60.2538ZM95.6457 60.2538L94.2318 62.8343L94.2197 62.8276L95.6457 60.2538ZM90.9798 55.4228L93.5836 54.0523L93.5907 54.0658L93.5977 54.0794L90.9798 55.4228ZM90.9798 40.3102L93.5977 41.6536L93.5907 41.6672L93.5836 41.6806L90.9798 40.3102ZM103.224 5.94242C100.778 5.94242 98.8769 6.42776 97.3979 7.25841L94.5161 2.12746C97.0562 0.700862 99.9994 0.0575833 103.224 0.0575833V5.94242ZM109.121 7.27475C107.566 6.42453 105.634 5.94242 103.224 5.94242V0.0575833C106.43 0.0575833 109.37 0.704092 111.944 2.11112L109.121 7.27475ZM112.636 10.8531C111.801 9.26602 110.646 8.09882 109.134 7.2814L111.932 2.10447C114.494 3.48924 116.477 5.51521 117.844 8.11228L112.636 10.8531ZM113.949 17.039C113.949 14.4558 113.467 12.4312 112.636 10.8531L117.844 8.11228C119.215 10.7183 119.834 13.7313 119.834 17.039H113.949ZM112.636 23.2248C113.467 21.6467 113.949 19.6221 113.949 17.039H119.834C119.834 20.3467 119.215 23.3596 117.844 25.9657L112.636 23.2248ZM109.107 26.8525C110.634 26.0062 111.798 24.8178 112.636 23.2248L117.844 25.9657C116.48 28.5568 114.505 30.5892 111.959 32.0001L109.107 26.8525ZM103.224 28.1355C105.645 28.1355 107.587 27.6626 109.148 26.83L111.917 32.0225C109.349 33.3922 106.419 34.0204 103.224 34.0204V28.1355ZM97.371 26.8459C98.8557 27.6594 100.767 28.1355 103.224 28.1355V34.0204C100.01 34.0204 97.0773 33.3954 94.5431 32.0067L97.371 26.8459ZM93.909 23.2519C94.7189 24.8301 95.8618 26.0097 97.383 26.8525L94.531 32.0001C91.9782 30.5857 90.0105 28.5446 88.6733 25.9386L93.909 23.2519ZM92.5819 17.039C92.5819 19.6221 93.0644 21.6467 93.8949 23.2248L88.6873 25.9657C87.3157 23.3596 86.6971 20.3467 86.6971 17.039H92.5819ZM93.8949 10.8531C93.0644 12.4312 92.5819 14.4558 92.5819 17.039H86.6971C86.6971 13.7313 87.3157 10.7183 88.6873 8.11228L93.8949 10.8531ZM97.3562 7.2814C95.8504 8.09537 94.7158 9.25379 93.909 10.8261L88.6733 8.13933C90.0136 5.52745 91.9897 3.49269 94.5579 2.10447L97.3562 7.2814ZM72.6932 5.94242C70.2475 5.94242 68.3458 6.42776 66.8669 7.25841L63.9851 2.12746C66.5251 0.700862 69.4683 0.0575833 72.6932 0.0575833V5.94242ZM78.5903 7.27475C77.0351 6.42453 75.1029 5.94242 72.6932 5.94242V0.0575833C75.8991 0.0575833 78.8393 0.704092 81.4131 2.11112L78.5903 7.27475ZM82.1051 10.8531C81.2698 9.26602 80.1148 8.09882 78.6026 7.2814L81.4009 2.10447C83.9627 3.48924 85.9458 5.51521 87.3127 8.11228L82.1051 10.8531ZM83.4181 17.039C83.4181 14.4558 82.9357 12.4312 82.1051 10.8531L87.3127 8.11228C88.6843 10.7183 89.303 13.7313 89.303 17.039H83.4181ZM82.1051 23.2248C82.9357 21.6467 83.4181 19.6221 83.4181 17.039H89.303C89.303 20.3467 88.6843 23.3596 87.3127 25.9657L82.1051 23.2248ZM78.5757 26.8525C80.1033 26.0062 81.2667 24.8178 82.1051 23.2248L87.3127 25.9657C85.9489 28.5568 83.9742 30.5892 81.4277 32.0001L78.5757 26.8525ZM72.6932 28.1355C75.1141 28.1355 77.0561 27.6626 78.6171 26.83L81.3864 32.0225C78.8183 33.3922 75.8879 34.0204 72.6932 34.0204V28.1355ZM66.8399 26.8459C68.3247 27.6594 70.2363 28.1355 72.6932 28.1355V34.0204C69.4795 34.0204 66.5463 33.3954 64.0121 32.0067L66.8399 26.8459ZM63.3779 23.2519C64.1878 24.8301 65.3308 26.0097 66.852 26.8525L64 32.0001C61.4472 30.5857 59.4795 28.5446 58.1422 25.9386L63.3779 23.2519ZM62.0509 17.039C62.0509 19.6221 62.5333 21.6467 63.3639 23.2248L58.1563 25.9657C56.7847 23.3596 56.166 20.3467 56.166 17.039H62.0509ZM63.3639 10.8531C62.5333 12.4312 62.0509 14.4558 62.0509 17.039H56.166C56.166 13.7313 56.7847 10.7183 58.1563 8.11228L63.3639 10.8531ZM66.8252 7.2814C65.3193 8.09537 64.1848 9.25379 63.3779 10.8261L58.1422 8.13933C59.4825 5.52745 61.4586 3.49269 64.0268 2.10447L66.8252 7.2814ZM63.9851 32.7178C66.5251 31.2912 69.4683 30.6479 72.6932 30.6479V36.5328C70.2475 36.5328 68.3458 37.0181 66.8669 37.8487L63.9851 32.7178ZM58.1422 38.7297C59.4825 36.1178 61.4586 34.083 64.0268 32.6948L66.8252 37.8717C65.3193 38.6857 64.1848 39.8441 63.3779 41.4164L58.1422 38.7297ZM56.166 47.6293C56.166 44.3216 56.7847 41.3087 58.1563 38.7026L63.3639 41.4435C62.5333 43.0216 62.0509 45.0461 62.0509 47.6293H56.166ZM58.1563 56.556C56.7847 53.9499 56.166 50.937 56.166 47.6293H62.0509C62.0509 50.2125 62.5333 52.237 63.3639 53.8152L58.1563 56.556ZM64 62.5904C61.4472 61.176 59.4795 59.1349 58.1422 56.5289L63.3779 53.8422C64.1878 55.4204 65.3308 56.6 66.852 57.4429L64 62.5904ZM72.6932 64.6107C69.4795 64.6107 66.5463 63.9857 64.0121 62.5971L66.8399 57.4362C68.3247 58.2498 70.2363 58.7259 72.6932 58.7259V64.6107ZM81.3864 62.6129C78.8183 63.9825 75.8879 64.6107 72.6932 64.6107V58.7259C75.1141 58.7259 77.0561 58.2529 78.6171 57.4204L81.3864 62.6129ZM87.3127 56.556C85.9489 59.1472 83.9742 61.1795 81.4277 62.5904L78.5757 57.4429C80.1033 56.5965 81.2667 55.4081 82.1051 53.8152L87.3127 56.556ZM89.303 47.6293C89.303 50.937 88.6843 53.9499 87.3127 56.556L82.1051 53.8152C82.9357 52.237 83.4181 50.2125 83.4181 47.6293H89.303ZM87.3127 38.7026C88.6843 41.3087 89.303 44.3216 89.303 47.6293H83.4181C83.4181 45.0461 82.9357 43.0216 82.1051 41.4435L87.3127 38.7026ZM81.4009 32.6948C83.9627 34.0796 85.9458 36.1056 87.3127 38.7026L82.1051 41.4435C81.2698 39.8564 80.1148 38.6892 78.6026 37.8717L81.4009 32.6948ZM72.6932 30.6479C75.8991 30.6479 78.8393 31.2944 81.4131 32.7015L78.5903 37.8651C77.0351 37.0149 75.1029 36.5328 72.6932 36.5328V30.6479ZM102.913 36.7699C100.467 36.7699 98.5656 37.2553 97.0866 38.0859L94.2048 32.955C96.7449 31.5284 99.6881 30.8851 102.913 30.8851V36.7699ZM108.81 38.1023C107.255 37.252 105.323 36.7699 102.913 36.7699V30.8851C106.119 30.8851 109.059 31.5316 111.633 32.9386L108.81 38.1023ZM112.325 41.6806C111.49 40.0935 110.335 38.9263 108.822 38.1089L111.621 32.932C114.182 34.3168 116.166 36.3427 117.532 38.9398L112.325 41.6806ZM113.638 47.8665C113.638 45.2833 113.155 43.2587 112.325 41.6806L117.532 38.9398C118.904 41.5459 119.523 44.5588 119.523 47.8665H113.638ZM112.325 54.0523C113.155 52.4742 113.638 50.4497 113.638 47.8665H119.523C119.523 51.1742 118.904 54.1871 117.532 56.7932L112.325 54.0523ZM108.795 57.68C110.323 56.8337 111.486 55.6453 112.325 54.0523L117.532 56.7932C116.169 59.3844 114.194 61.4167 111.647 62.8276L108.795 57.68ZM102.913 58.963C105.334 58.963 107.276 58.4901 108.837 57.6576L111.606 62.8501C109.038 64.2197 106.108 64.8479 102.913 64.8479V58.963ZM97.0597 57.6734C98.5444 58.4869 100.456 58.963 102.913 58.963V64.8479C99.6992 64.8479 96.766 64.2229 94.2318 62.8342L97.0597 57.6734ZM93.5977 54.0794C94.4076 55.6576 95.5505 56.8372 97.0717 57.68L94.2197 62.8276C91.6669 61.4132 89.6992 59.3721 88.362 56.7661L93.5977 54.0794ZM92.2706 47.8665C92.2706 50.4497 92.7531 52.4742 93.5836 54.0523L88.376 56.7932C87.0044 54.1871 86.3858 51.1742 86.3858 47.8665H92.2706ZM93.5836 41.6806C92.7531 43.2587 92.2706 45.2833 92.2706 47.8665H86.3858C86.3858 44.5588 87.0044 41.5459 88.376 38.9398L93.5836 41.6806ZM97.0449 38.1089C95.5391 38.9229 94.4045 40.0813 93.5977 41.6536L88.362 38.9668C89.7023 36.355 91.6784 34.3202 94.2466 32.932L97.0449 38.1089Z" fill="#004065" mask="url(#path-1-outside-1_2020_38387)"/>
<path d="M66.781 12.5352L78.5261 22.6024M78.5261 12.5352L66.781 22.6024" stroke="#004065" stroke-width="3.35574" stroke-linejoin="bevel"/>
<path d="M97.533 43.1406L109.278 53.2078M109.278 43.1406L97.533 53.2078" stroke="#004065" stroke-width="3.35574" stroke-linejoin="bevel"/>
<path fill-rule="evenodd" clip-rule="evenodd" d="M98.0646 12.9228C99.6793 11.3082 102.297 11.3082 103.912 12.9228L103.923 12.9341C103.984 12.9954 104.084 12.9954 104.145 12.9341C105.759 11.3195 108.377 11.3195 109.992 12.9341C111.606 14.5487 111.606 17.1665 109.992 18.7811L105.526 23.2473C104.698 24.0745 103.357 24.0745 102.53 23.2473L98.1838 18.9011C98.1822 18.8994 98.1822 18.8967 98.1838 18.8951C98.1855 18.8934 98.1855 18.8907 98.1838 18.889L98.0646 18.7698C96.45 17.1552 96.45 14.5374 98.0646 12.9228Z" fill="#00507D"/>
<path fill-rule="evenodd" clip-rule="evenodd" d="M66.5493 44.3707C68.201 42.7189 70.8789 42.7189 72.5307 44.3707L72.544 44.384C72.6058 44.4458 72.706 44.4458 72.7678 44.384C74.4195 42.7323 77.0975 42.7323 78.7492 44.384C80.4009 46.0357 80.4009 48.7137 78.7492 50.3654L74.1805 54.9342C73.3342 55.7804 71.9622 55.7804 71.1159 54.9342L66.6706 50.4889C66.6685 50.4868 66.6685 50.4833 66.6706 50.4812C66.6728 50.479 66.6728 50.4756 66.6706 50.4735L66.5493 50.3521C64.8975 48.7004 64.8975 46.0224 66.5493 44.3707Z" fill="#00507D"/>
<mask id="path-7-outside-2_2020_38387" maskUnits="userSpaceOnUse" x="0" y="78.9062" width="176" height="25" fill="black">
<rect fill="white" y="78.9062" width="176" height="25"/>
<path d="M20.1573 81.3696L10.981 92.3516L10.6554 91.5819L6.00808 97.2357L5.03125 93.1212L14.5036 81.3696H20.1573ZM7.51773 81.3696V100.906H2.42636V81.3696H7.51773ZM12.6387 87.8226L20.5126 100.906H14.7404L8.82017 90.6643L12.6387 87.8226ZM27.1538 81.3696V100.906H22.0624V81.3696H27.1538ZM38.2352 81.0736C40.0507 81.0736 41.6492 81.3597 43.0306 81.932C44.4317 82.4846 45.6453 83.3035 46.6715 84.3889L44.2146 87.6746C43.366 86.7866 42.4484 86.1255 41.4617 85.6913C40.4948 85.2375 39.3897 85.0105 38.1464 85.0105C37.4163 85.0105 36.8242 85.0895 36.3704 85.2473C35.9165 85.4052 35.5909 85.6223 35.3935 85.8986C35.1962 86.1748 35.0975 86.4906 35.0975 86.8458C35.0975 87.2602 35.285 87.6154 35.6599 87.9114C36.0546 88.1877 36.6861 88.4245 37.5544 88.6218L40.8401 89.3619C42.7938 89.8158 44.2245 90.4768 45.1322 91.3451C46.04 92.2134 46.4939 93.3679 46.4939 94.8084C46.4939 96.1898 46.1387 97.364 45.4282 98.331C44.7178 99.2782 43.741 99.9985 42.4978 100.492C41.2545 100.965 39.8337 101.202 38.2352 101.202C36.9328 101.202 35.6895 101.064 34.5055 100.788C33.3215 100.492 32.2558 100.077 31.3086 99.5446C30.3614 99.0118 29.5621 98.4 28.9109 97.7093L31.3678 94.3052C31.8611 94.8775 32.463 95.3906 33.1734 95.8445C33.9036 96.2786 34.693 96.624 35.5415 96.8805C36.4098 97.1371 37.288 97.2653 38.176 97.2653C38.8667 97.2653 39.439 97.1963 39.8929 97.0581C40.3665 96.92 40.7118 96.7128 40.9289 96.4365C41.146 96.1602 41.2545 95.8346 41.2545 95.4597C41.2545 95.0453 41.1065 94.6999 40.8105 94.4236C40.5145 94.1276 39.9521 93.881 39.1232 93.6836L35.5119 92.8844C34.4068 92.6278 33.4201 92.2924 32.5518 91.878C31.7033 91.4438 31.0323 90.8715 30.539 90.1611C30.0456 89.4309 29.7989 88.5232 29.7989 87.4378C29.7989 86.2143 30.1344 85.1289 30.8054 84.1817C31.4763 83.2147 32.4433 82.455 33.7063 81.9024C34.9692 81.3499 36.4789 81.0736 38.2352 81.0736ZM56.4259 81.0736C58.2415 81.0736 59.8399 81.3597 61.2213 81.932C62.6224 82.4846 63.836 83.3035 64.8622 84.3889L62.4053 87.6746C61.5568 86.7866 60.6391 86.1255 59.6524 85.6913C58.6855 85.2375 57.5804 85.0105 56.3371 85.0105C55.607 85.0105 55.015 85.0895 54.5611 85.2473C54.1072 85.4052 53.7816 85.6223 53.5842 85.8986C53.3869 86.1748 53.2882 86.4906 53.2882 86.8458C53.2882 87.2602 53.4757 87.6154 53.8507 87.9114C54.2453 88.1877 54.8768 88.4245 55.7451 88.6218L59.0308 89.3619C60.9845 89.8158 62.4152 90.4768 63.323 91.3451C64.2307 92.2134 64.6846 93.3679 64.6846 94.8084C64.6846 96.1898 64.3294 97.364 63.619 98.331C62.9086 99.2782 61.9317 99.9985 60.6885 100.492C59.4452 100.965 58.0244 101.202 56.4259 101.202C55.1235 101.202 53.8803 101.064 52.6962 100.788C51.5122 100.492 50.4465 100.077 49.4993 99.5446C48.5521 99.0118 47.7529 98.4 47.1016 97.7093L49.5585 94.3052C50.0519 94.8775 50.6537 95.3906 51.3642 95.8445C52.0943 96.2786 52.8837 96.624 53.7322 96.8805C54.6005 97.1371 55.4787 97.2653 56.3667 97.2653C57.0574 97.2653 57.6297 97.1963 58.0836 97.0581C58.5572 96.92 58.9026 96.7128 59.1196 96.4365C59.3367 96.1602 59.4452 95.8346 59.4452 95.4597C59.4452 95.0453 59.2972 94.6999 59.0012 94.4236C58.7052 94.1276 58.1428 93.881 57.314 93.6836L53.7026 92.8844C52.5975 92.6278 51.6108 92.2924 50.7425 91.878C49.894 91.4438 49.223 90.8715 48.7297 90.1611C48.2363 89.4309 47.9897 88.5232 47.9897 87.4378C47.9897 86.2143 48.3251 85.1289 48.9961 84.1817C49.667 83.2147 50.634 82.455 51.897 81.9024C53.16 81.3499 54.6696 81.0736 56.4259 81.0736ZM81.2512 85.8098C82.8102 85.8098 84.1718 86.1156 85.3361 86.7274C86.5202 87.3194 87.4378 88.1976 88.089 89.3619C88.76 90.5064 89.0955 91.8878 89.0955 93.506C89.0955 95.1242 88.76 96.5154 88.089 97.6797C87.4378 98.8243 86.5202 99.7025 85.3361 100.314C84.1718 100.906 82.8102 101.202 81.2512 101.202C79.7317 101.202 78.3799 100.906 77.1959 100.314C76.0118 99.7025 75.0843 98.8243 74.4134 97.6797C73.7622 96.5154 73.4366 95.1242 73.4366 93.506C73.4366 91.8878 73.7622 90.5064 74.4134 89.3619C75.0843 88.1976 76.0118 87.3194 77.1959 86.7274C78.3799 86.1156 79.7317 85.8098 81.2512 85.8098ZM81.2512 89.3915C80.6789 89.3915 80.1856 89.5296 79.7712 89.8059C79.3567 90.0822 79.041 90.5262 78.8239 91.1379C78.6069 91.7497 78.4983 92.539 78.4983 93.506C78.4983 94.473 78.6069 95.2623 78.8239 95.8741C79.041 96.4661 79.3567 96.9101 79.7712 97.2061C80.1856 97.4824 80.6789 97.6205 81.2512 97.6205C81.8432 97.6205 82.3464 97.4824 82.7609 97.2061C83.1753 96.9101 83.491 96.4661 83.7081 95.8741C83.9252 95.2623 84.0337 94.473 84.0337 93.506C84.0337 92.539 83.9252 91.7497 83.7081 91.1379C83.491 90.5262 83.1753 90.0822 82.7609 89.8059C82.3464 89.5296 81.8432 89.3915 81.2512 89.3915ZM91.0383 100.906V86.1058H95.4784L95.6856 89.3027C96.0606 88.1976 96.6131 87.3391 97.3433 86.7274C98.0932 86.1156 99.0404 85.8098 100.185 85.8098C100.56 85.8098 100.876 85.8394 101.132 85.8986C101.408 85.9578 101.626 86.0367 101.783 86.1354L101.28 90.2795C101.083 90.2006 100.826 90.1414 100.511 90.1019C100.215 90.0427 99.8495 90.0131 99.4153 90.0131C98.8233 90.0131 98.2708 90.1414 97.7577 90.3979C97.2446 90.6544 96.8302 91.0393 96.5144 91.5523C96.2184 92.0457 96.0704 92.6772 96.0704 93.4468V100.906H91.0383ZM108.597 100.906L113.126 81.3696H121.503C123.516 81.3696 125.105 81.863 126.269 82.8497C127.453 83.8166 128.045 85.1783 128.045 86.9346C128.045 88.3554 127.71 89.5592 127.039 90.5459C126.388 91.5326 125.5 92.3022 124.375 92.8548C123.25 93.3876 121.977 93.6836 120.556 93.7428L119.431 94.0092H114.754L115.583 90.3979H119.461C120.231 90.3979 120.872 90.2696 121.385 90.0131C121.918 89.7565 122.322 89.4013 122.599 88.9475C122.875 88.4738 123.013 87.9608 123.013 87.4082C123.013 86.6386 122.757 86.086 122.243 85.7506C121.73 85.3953 121.069 85.2177 120.26 85.2177H117.241L113.6 100.906H108.597ZM121.237 100.906L118.04 92.4404L122.658 91.7299L126.388 100.906H121.237ZM136.777 101.202C134.824 101.202 133.196 100.847 131.893 100.137C130.591 99.4262 129.683 98.4 129.17 97.0581C128.657 95.7162 128.617 94.1079 129.051 92.2332L131.597 81.3696H136.689L134.054 92.9436C133.857 93.8711 133.857 94.6506 134.054 95.2821C134.271 95.9136 134.646 96.397 135.179 96.7325C135.731 97.0483 136.412 97.2061 137.221 97.2061C138.307 97.2061 139.155 96.8805 139.767 96.2293C140.379 95.5781 140.823 94.621 141.099 93.358L143.882 81.3696H148.943L146.131 93.506C145.539 96.032 144.493 97.9462 142.994 99.2486C141.494 100.551 139.422 101.202 136.777 101.202ZM156.524 101.173C155.064 101.173 153.742 100.837 152.558 100.166C151.393 99.4755 150.466 98.4987 149.775 97.2357C149.084 95.9728 148.739 94.4631 148.739 92.7068C148.739 91.1281 148.976 89.648 149.45 88.2666C149.923 86.8655 150.614 85.6223 151.522 84.5369C152.429 83.4515 153.544 82.603 154.867 81.9912C156.208 81.3795 157.748 81.0736 159.484 81.0736C160.925 81.0736 162.217 81.3104 163.362 81.784C164.526 82.2379 165.483 82.9187 166.233 83.8265C167.003 84.7343 167.486 85.8492 167.684 87.1714L162.888 88.089C162.75 87.1023 162.385 86.3524 161.793 85.8394C161.201 85.3263 160.392 85.0697 159.366 85.0697C158.537 85.0697 157.777 85.2572 157.087 85.6321C156.416 86.0071 155.833 86.53 155.34 87.201C154.867 87.872 154.501 88.6514 154.245 89.5395C153.988 90.4078 153.86 91.3353 153.86 92.322C153.86 93.3481 154.018 94.2362 154.334 94.9861C154.649 95.7359 155.123 96.3181 155.755 96.7325C156.386 97.1272 157.175 97.3245 158.123 97.3245C158.873 97.3245 159.524 97.2061 160.076 96.9693C160.629 96.7325 161.083 96.4069 161.438 95.9925C161.793 95.5583 162.06 95.065 162.237 94.5124L162.474 93.8612H157.797L158.567 90.4867H167.269L164.664 100.906H161.29L162.267 96.3181L162.711 96.7917C162.356 97.7389 161.902 98.5382 161.349 99.1894C160.797 99.8406 160.126 100.334 159.336 100.669C158.547 101.005 157.61 101.173 156.524 101.173ZM170.195 101.143C169.366 101.143 168.695 100.956 168.182 100.581C167.689 100.186 167.442 99.6235 167.442 98.8934C167.442 97.9659 167.719 97.2259 168.271 96.6733C168.824 96.101 169.574 95.8149 170.521 95.8149C171.35 95.8149 172.011 96.0122 172.504 96.4069C173.017 96.8016 173.274 97.364 173.274 98.0942C173.274 99.0217 172.997 99.7617 172.445 100.314C171.912 100.867 171.162 101.143 170.195 101.143Z"/>
</mask>
<path d="M20.1573 81.3696L10.981 92.3516L10.6554 91.5819L6.00808 97.2357L5.03125 93.1212L14.5036 81.3696H20.1573ZM7.51773 81.3696V100.906H2.42636V81.3696H7.51773ZM12.6387 87.8226L20.5126 100.906H14.7404L8.82017 90.6643L12.6387 87.8226ZM27.1538 81.3696V100.906H22.0624V81.3696H27.1538ZM38.2352 81.0736C40.0507 81.0736 41.6492 81.3597 43.0306 81.932C44.4317 82.4846 45.6453 83.3035 46.6715 84.3889L44.2146 87.6746C43.366 86.7866 42.4484 86.1255 41.4617 85.6913C40.4948 85.2375 39.3897 85.0105 38.1464 85.0105C37.4163 85.0105 36.8242 85.0895 36.3704 85.2473C35.9165 85.4052 35.5909 85.6223 35.3935 85.8986C35.1962 86.1748 35.0975 86.4906 35.0975 86.8458C35.0975 87.2602 35.285 87.6154 35.6599 87.9114C36.0546 88.1877 36.6861 88.4245 37.5544 88.6218L40.8401 89.3619C42.7938 89.8158 44.2245 90.4768 45.1322 91.3451C46.04 92.2134 46.4939 93.3679 46.4939 94.8084C46.4939 96.1898 46.1387 97.364 45.4282 98.331C44.7178 99.2782 43.741 99.9985 42.4978 100.492C41.2545 100.965 39.8337 101.202 38.2352 101.202C36.9328 101.202 35.6895 101.064 34.5055 100.788C33.3215 100.492 32.2558 100.077 31.3086 99.5446C30.3614 99.0118 29.5621 98.4 28.9109 97.7093L31.3678 94.3052C31.8611 94.8775 32.463 95.3906 33.1734 95.8445C33.9036 96.2786 34.693 96.624 35.5415 96.8805C36.4098 97.1371 37.288 97.2653 38.176 97.2653C38.8667 97.2653 39.439 97.1963 39.8929 97.0581C40.3665 96.92 40.7118 96.7128 40.9289 96.4365C41.146 96.1602 41.2545 95.8346 41.2545 95.4597C41.2545 95.0453 41.1065 94.6999 40.8105 94.4236C40.5145 94.1276 39.9521 93.881 39.1232 93.6836L35.5119 92.8844C34.4068 92.6278 33.4201 92.2924 32.5518 91.878C31.7033 91.4438 31.0323 90.8715 30.539 90.1611C30.0456 89.4309 29.7989 88.5232 29.7989 87.4378C29.7989 86.2143 30.1344 85.1289 30.8054 84.1817C31.4763 83.2147 32.4433 82.455 33.7063 81.9024C34.9692 81.3499 36.4789 81.0736 38.2352 81.0736ZM56.4259 81.0736C58.2415 81.0736 59.8399 81.3597 61.2213 81.932C62.6224 82.4846 63.836 83.3035 64.8622 84.3889L62.4053 87.6746C61.5568 86.7866 60.6391 86.1255 59.6524 85.6913C58.6855 85.2375 57.5804 85.0105 56.3371 85.0105C55.607 85.0105 55.015 85.0895 54.5611 85.2473C54.1072 85.4052 53.7816 85.6223 53.5842 85.8986C53.3869 86.1748 53.2882 86.4906 53.2882 86.8458C53.2882 87.2602 53.4757 87.6154 53.8507 87.9114C54.2453 88.1877 54.8768 88.4245 55.7451 88.6218L59.0308 89.3619C60.9845 89.8158 62.4152 90.4768 63.323 91.3451C64.2307 92.2134 64.6846 93.3679 64.6846 94.8084C64.6846 96.1898 64.3294 97.364 63.619 98.331C62.9086 99.2782 61.9317 99.9985 60.6885 100.492C59.4452 100.965 58.0244 101.202 56.4259 101.202C55.1235 101.202 53.8803 101.064 52.6962 100.788C51.5122 100.492 50.4465 100.077 49.4993 99.5446C48.5521 99.0118 47.7529 98.4 47.1016 97.7093L49.5585 94.3052C50.0519 94.8775 50.6537 95.3906 51.3642 95.8445C52.0943 96.2786 52.8837 96.624 53.7322 96.8805C54.6005 97.1371 55.4787 97.2653 56.3667 97.2653C57.0574 97.2653 57.6297 97.1963 58.0836 97.0581C58.5572 96.92 58.9026 96.7128 59.1196 96.4365C59.3367 96.1602 59.4452 95.8346 59.4452 95.4597C59.4452 95.0453 59.2972 94.6999 59.0012 94.4236C58.7052 94.1276 58.1428 93.881 57.314 93.6836L53.7026 92.8844C52.5975 92.6278 51.6108 92.2924 50.7425 91.878C49.894 91.4438 49.223 90.8715 48.7297 90.1611C48.2363 89.4309 47.9897 88.5232 47.9897 87.4378C47.9897 86.2143 48.3251 85.1289 48.9961 84.1817C49.667 83.2147 50.634 82.455 51.897 81.9024C53.16 81.3499 54.6696 81.0736 56.4259 81.0736ZM81.2512 85.8098C82.8102 85.8098 84.1718 86.1156 85.3361 86.7274C86.5202 87.3194 87.4378 88.1976 88.089 89.3619C88.76 90.5064 89.0955 91.8878 89.0955 93.506C89.0955 95.1242 88.76 96.5154 88.089 97.6797C87.4378 98.8243 86.5202 99.7025 85.3361 100.314C84.1718 100.906 82.8102 101.202 81.2512 101.202C79.7317 101.202 78.3799 100.906 77.1959 100.314C76.0118 99.7025 75.0843 98.8243 74.4134 97.6797C73.7622 96.5154 73.4366 95.1242 73.4366 93.506C73.4366 91.8878 73.7622 90.5064 74.4134 89.3619C75.0843 88.1976 76.0118 87.3194 77.1959 86.7274C78.3799 86.1156 79.7317 85.8098 81.2512 85.8098ZM81.2512 89.3915C80.6789 89.3915 80.1856 89.5296 79.7712 89.8059C79.3567 90.0822 79.041 90.5262 78.8239 91.1379C78.6069 91.7497 78.4983 92.539 78.4983 93.506C78.4983 94.473 78.6069 95.2623 78.8239 95.8741C79.041 96.4661 79.3567 96.9101 79.7712 97.2061C80.1856 97.4824 80.6789 97.6205 81.2512 97.6205C81.8432 97.6205 82.3464 97.4824 82.7609 97.2061C83.1753 96.9101 83.491 96.4661 83.7081 95.8741C83.9252 95.2623 84.0337 94.473 84.0337 93.506C84.0337 92.539 83.9252 91.7497 83.7081 91.1379C83.491 90.5262 83.1753 90.0822 82.7609 89.8059C82.3464 89.5296 81.8432 89.3915 81.2512 89.3915ZM91.0383 100.906V86.1058H95.4784L95.6856 89.3027C96.0606 88.1976 96.6131 87.3391 97.3433 86.7274C98.0932 86.1156 99.0404 85.8098 100.185 85.8098C100.56 85.8098 100.876 85.8394 101.132 85.8986C101.408 85.9578 101.626 86.0367 101.783 86.1354L101.28 90.2795C101.083 90.2006 100.826 90.1414 100.511 90.1019C100.215 90.0427 99.8495 90.0131 99.4153 90.0131C98.8233 90.0131 98.2708 90.1414 97.7577 90.3979C97.2446 90.6544 96.8302 91.0393 96.5144 91.5523C96.2184 92.0457 96.0704 92.6772 96.0704 93.4468V100.906H91.0383ZM108.597 100.906L113.126 81.3696H121.503C123.516 81.3696 125.105 81.863 126.269 82.8497C127.453 83.8166 128.045 85.1783 128.045 86.9346C128.045 88.3554 127.71 89.5592 127.039 90.5459C126.388 91.5326 125.5 92.3022 124.375 92.8548C123.25 93.3876 121.977 93.6836 120.556 93.7428L119.431 94.0092H114.754L115.583 90.3979H119.461C120.231 90.3979 120.872 90.2696 121.385 90.0131C121.918 89.7565 122.322 89.4013 122.599 88.9475C122.875 88.4738 123.013 87.9608 123.013 87.4082C123.013 86.6386 122.757 86.086 122.243 85.7506C121.73 85.3953 121.069 85.2177 120.26 85.2177H117.241L113.6 100.906H108.597ZM121.237 100.906L118.04 92.4404L122.658 91.7299L126.388 100.906H121.237ZM136.777 101.202C134.824 101.202 133.196 100.847 131.893 100.137C130.591 99.4262 129.683 98.4 129.17 97.0581C128.657 95.7162 128.617 94.1079 129.051 92.2332L131.597 81.3696H136.689L134.054 92.9436C133.857 93.8711 133.857 94.6506 134.054 95.2821C134.271 95.9136 134.646 96.397 135.179 96.7325C135.731 97.0483 136.412 97.2061 137.221 97.2061C138.307 97.2061 139.155 96.8805 139.767 96.2293C140.379 95.5781 140.823 94.621 141.099 93.358L143.882 81.3696H148.943L146.131 93.506C145.539 96.032 144.493 97.9462 142.994 99.2486C141.494 100.551 139.422 101.202 136.777 101.202ZM156.524 101.173C155.064 101.173 153.742 100.837 152.558 100.166C151.393 99.4755 150.466 98.4987 149.775 97.2357C149.084 95.9728 148.739 94.4631 148.739 92.7068C148.739 91.1281 148.976 89.648 149.45 88.2666C149.923 86.8655 150.614 85.6223 151.522 84.5369C152.429 83.4515 153.544 82.603 154.867 81.9912C156.208 81.3795 157.748 81.0736 159.484 81.0736C160.925 81.0736 162.217 81.3104 163.362 81.784C164.526 82.2379 165.483 82.9187 166.233 83.8265C167.003 84.7343 167.486 85.8492 167.684 87.1714L162.888 88.089C162.75 87.1023 162.385 86.3524 161.793 85.8394C161.201 85.3263 160.392 85.0697 159.366 85.0697C158.537 85.0697 157.777 85.2572 157.087 85.6321C156.416 86.0071 155.833 86.53 155.34 87.201C154.867 87.872 154.501 88.6514 154.245 89.5395C153.988 90.4078 153.86 91.3353 153.86 92.322C153.86 93.3481 154.018 94.2362 154.334 94.9861C154.649 95.7359 155.123 96.3181 155.755 96.7325C156.386 97.1272 157.175 97.3245 158.123 97.3245C158.873 97.3245 159.524 97.2061 160.076 96.9693C160.629 96.7325 161.083 96.4069 161.438 95.9925C161.793 95.5583 162.06 95.065 162.237 94.5124L162.474 93.8612H157.797L158.567 90.4867H167.269L164.664 100.906H161.29L162.267 96.3181L162.711 96.7917C162.356 97.7389 161.902 98.5382 161.349 99.1894C160.797 99.8406 160.126 100.334 159.336 100.669C158.547 101.005 157.61 101.173 156.524 101.173ZM170.195 101.143C169.366 101.143 168.695 100.956 168.182 100.581C167.689 100.186 167.442 99.6235 167.442 98.8934C167.442 97.9659 167.719 97.2259 168.271 96.6733C168.824 96.101 169.574 95.8149 170.521 95.8149C171.35 95.8149 172.011 96.0122 172.504 96.4069C173.017 96.8016 173.274 97.364 173.274 98.0942C173.274 99.0217 172.997 99.7617 172.445 100.314C171.912 100.867 171.162 101.143 170.195 101.143Z" fill="#DDDDDD"/>
<path d="M20.1573 81.3696L21.6921 82.652C22.19 82.0561 22.298 81.2259 21.9691 80.5225C21.6402 79.8191 20.9339 79.3696 20.1573 79.3696V81.3696ZM10.981 92.3516L9.13911 93.1308C9.41069 93.7728 9.99689 94.227 10.6863 94.3297C11.3757 94.4325 12.0689 94.1688 12.5158 93.634L10.981 92.3516ZM10.6554 91.5819L12.4974 90.8027C12.2247 90.1581 11.6349 89.703 10.9422 89.6026C10.2495 89.5023 9.55483 89.7713 9.1104 90.3119L10.6554 91.5819ZM6.00808 97.2357L4.06216 97.6977C4.23766 98.4369 4.81687 99.0129 5.55708 99.1842C6.29728 99.3555 7.07065 99.0927 7.5531 98.5057L6.00808 97.2357ZM5.03125 93.1212L3.47411 91.8661C3.08602 92.3475 2.94249 92.9815 3.08533 93.5832L5.03125 93.1212ZM14.5036 81.3696V79.3696C13.8986 79.3696 13.3261 79.6435 12.9464 80.1145L14.5036 81.3696ZM7.51773 81.3696H9.51773C9.51773 80.265 8.6223 79.3696 7.51773 79.3696V81.3696ZM7.51773 100.906V102.906C8.6223 102.906 9.51773 102.011 9.51773 100.906H7.51773ZM2.42636 100.906H0.426359C0.426359 102.011 1.32179 102.906 2.42636 102.906V100.906ZM2.42636 81.3696V79.3696C1.32179 79.3696 0.426359 80.265 0.426359 81.3696H2.42636ZM12.6387 87.8226L14.3523 86.7913C14.0612 86.3077 13.5793 85.9696 13.0255 85.8604C12.4717 85.7512 11.8975 85.8811 11.4447 86.2182L12.6387 87.8226ZM20.5126 100.906V102.906C21.2336 102.906 21.8988 102.518 22.2536 101.89C22.6084 101.263 22.598 100.493 22.2262 99.875L20.5126 100.906ZM14.7404 100.906L13.0088 101.907C13.3662 102.525 14.0262 102.906 14.7404 102.906V100.906ZM8.82017 90.6643L7.62615 89.0598C6.81166 89.666 6.58054 90.7862 7.08863 91.6652L8.82017 90.6643ZM18.6226 80.0872L9.4463 91.0692L12.5158 93.634L21.6921 82.652L18.6226 80.0872ZM12.823 91.5723L12.4974 90.8027L8.8135 92.3612L9.13911 93.1308L12.823 91.5723ZM9.1104 90.3119L4.46305 95.9657L7.5531 98.5057L12.2005 92.8519L9.1104 90.3119ZM7.95399 96.7738L6.97716 92.6592L3.08533 93.5832L4.06216 97.6977L7.95399 96.7738ZM6.58838 94.3763L16.0607 82.6247L12.9464 80.1145L3.47411 91.8661L6.58838 94.3763ZM14.5036 83.3696H20.1573V79.3696H14.5036V83.3696ZM5.51773 81.3696V100.906H9.51773V81.3696H5.51773ZM7.51773 98.9062H2.42636V102.906H7.51773V98.9062ZM4.42636 100.906V81.3696H0.426359V100.906H4.42636ZM2.42636 83.3696H7.51773V79.3696H2.42636V83.3696ZM10.9251 88.8539L18.7989 101.938L22.2262 99.875L14.3523 86.7913L10.9251 88.8539ZM20.5126 98.9062H14.7404V102.906H20.5126V98.9062ZM16.4719 99.9054L10.5517 89.6634L7.08863 91.6652L13.0088 101.907L16.4719 99.9054ZM10.0142 92.2688L13.8327 89.4271L11.4447 86.2182L7.62615 89.0598L10.0142 92.2688ZM27.1538 81.3696H29.1538C29.1538 80.265 28.2584 79.3696 27.1538 79.3696V81.3696ZM27.1538 100.906V102.906C28.2584 102.906 29.1538 102.011 29.1538 100.906H27.1538ZM22.0624 100.906H20.0624C20.0624 102.011 20.9579 102.906 22.0624 102.906V100.906ZM22.0624 81.3696V79.3696C20.9579 79.3696 20.0624 80.265 20.0624 81.3696H22.0624ZM25.1538 81.3696V100.906H29.1538V81.3696H25.1538ZM27.1538 98.9062H22.0624V102.906H27.1538V98.9062ZM24.0624 100.906V81.3696H20.0624V100.906H24.0624ZM22.0624 83.3696H27.1538V79.3696H22.0624V83.3696ZM43.0306 81.932L42.2651 83.7797C42.2756 83.7841 42.2862 83.7884 42.2968 83.7926L43.0306 81.932ZM46.6715 84.3889L48.2732 85.5866C48.8559 84.8074 48.7932 83.7219 48.1248 83.0149L46.6715 84.3889ZM44.2146 87.6746L42.7686 89.0563C43.175 89.4816 43.748 89.7064 44.3352 89.671C44.9223 89.6355 45.4641 89.3434 45.8163 88.8723L44.2146 87.6746ZM41.4617 85.6913L40.6119 87.5018C40.6266 87.5087 40.6414 87.5154 40.6562 87.522L41.4617 85.6913ZM36.3703 85.2473L35.7133 83.3583L35.7133 83.3583L36.3703 85.2473ZM35.3935 85.8986L37.021 87.061L37.021 87.061L35.3935 85.8986ZM35.6599 87.9114L34.4206 89.4812C34.4508 89.505 34.4816 89.5279 34.513 89.5499L35.6599 87.9114ZM37.5544 88.6218L37.1111 90.5721L37.1149 90.573L37.5544 88.6218ZM40.8401 89.3619L41.2927 87.4137L41.2795 87.4107L40.8401 89.3619ZM45.4282 98.331L47.0283 99.531C47.0322 99.5257 47.0361 99.5204 47.04 99.5151L45.4282 98.331ZM42.4978 100.492L43.2097 102.361C43.2183 102.358 43.2269 102.354 43.2354 102.351L42.4978 100.492ZM34.5055 100.788L34.0204 102.728C34.0306 102.731 34.0408 102.733 34.051 102.736L34.5055 100.788ZM31.3086 99.5446L30.3281 101.288L31.3086 99.5446ZM28.9109 97.7093L27.2892 96.5389C26.7278 97.3167 26.7977 98.3835 27.4557 99.0814L28.9109 97.7093ZM31.3678 94.3052L32.8826 92.9994C32.483 92.5358 31.893 92.2807 31.2815 92.3071C30.67 92.3335 30.1043 92.6385 29.7461 93.1348L31.3678 94.3052ZM33.1734 95.8445L32.0967 97.5299C32.1147 97.5414 32.1329 97.5526 32.1513 97.5636L33.1734 95.8445ZM35.5415 96.8805L34.9627 98.795L34.9748 98.7986L35.5415 96.8805ZM39.8929 97.0581L39.3329 95.1381C39.3254 95.1403 39.318 95.1425 39.3105 95.1448L39.8929 97.0581ZM40.8105 94.4236L39.3963 95.8378C39.4125 95.8541 39.4291 95.8701 39.4459 95.8857L40.8105 94.4236ZM39.1232 93.6836L39.5865 91.738C39.5761 91.7355 39.5658 91.7332 39.5554 91.7309L39.1232 93.6836ZM35.5119 92.8844L35.0597 94.8326C35.0664 94.8341 35.0731 94.8357 35.0798 94.8371L35.5119 92.8844ZM32.5518 91.878L31.6409 93.6584C31.6573 93.6668 31.6738 93.675 31.6904 93.6829L32.5518 91.878ZM30.539 90.1611L28.8818 91.2808C28.8865 91.2879 28.8914 91.2949 28.8962 91.3019L30.539 90.1611ZM30.8054 84.1817L32.4374 85.3377C32.4412 85.3325 32.4449 85.3272 32.4485 85.3219L30.8054 84.1817ZM33.7063 81.9024L32.9046 80.0701L33.7063 81.9024ZM38.2352 83.0736C39.8429 83.0736 41.1724 83.327 42.2651 83.7797L43.7961 80.0843C42.126 79.3924 40.2586 79.0736 38.2352 79.0736V83.0736ZM42.2968 83.7926C43.4277 84.2385 44.3951 84.8923 45.2182 85.7629L48.1248 83.0149C46.8956 81.7148 45.4357 80.7306 43.7643 80.0715L42.2968 83.7926ZM45.0698 83.1912L42.6129 86.4769L45.8163 88.8723L48.2732 85.5866L45.0698 83.1912ZM45.6606 86.2929C44.6554 85.2409 43.5261 84.4147 42.2672 83.8607L40.6562 87.522C41.3707 87.8363 42.0767 88.3323 42.7686 89.0563L45.6606 86.2929ZM42.3115 83.8809C41.0385 83.2833 39.6355 83.0105 38.1464 83.0105V87.0105C39.1438 87.0105 39.951 87.1916 40.6119 87.5018L42.3115 83.8809ZM38.1464 83.0105C37.2964 83.0105 36.4582 83.0992 35.7133 83.3583L37.0274 87.1363C37.1903 87.0797 37.5361 87.0105 38.1464 87.0105V83.0105ZM35.7133 83.3583C35.0253 83.5976 34.2851 84.0094 33.7661 84.7361L37.021 87.061C36.959 87.1478 36.9036 87.187 36.8951 87.1926C36.8915 87.1951 36.8988 87.1898 36.9209 87.1792C36.9431 87.1685 36.9777 87.1536 37.0274 87.1363L35.7133 83.3583ZM33.7661 84.7361C33.3148 85.3679 33.0975 86.0942 33.0975 86.8458H37.0975C37.0975 86.8556 37.0958 86.8902 37.0805 86.9391C37.0649 86.9889 37.0423 87.0312 37.021 87.061L33.7661 84.7361ZM33.0975 86.8458C33.0975 87.9705 33.648 88.8712 34.4206 89.4812L36.8992 86.3417C36.8899 86.3343 36.9482 86.3782 37.0069 86.4895C37.0699 86.609 37.0975 86.7384 37.0975 86.8458H33.0975ZM34.513 89.5499C35.2303 90.052 36.1678 90.3577 37.1111 90.5721L37.9976 86.6716C37.2044 86.4913 36.8789 86.3234 36.8069 86.273L34.513 89.5499ZM37.1149 90.573L40.4007 91.313L41.2795 87.4107L37.9938 86.6707L37.1149 90.573ZM40.3875 91.31C42.1804 91.7265 43.2124 92.2764 43.7498 92.7904L46.5147 89.8999C45.2365 88.6773 43.4071 87.905 41.2927 87.4138L40.3875 91.31ZM43.7498 92.7904C44.204 93.2249 44.4939 93.8261 44.4939 94.8084H48.4939C48.4939 92.9096 47.876 91.202 46.5147 89.8999L43.7498 92.7904ZM44.4939 94.8084C44.4939 95.8308 44.2377 96.5734 43.8165 97.1468L47.04 99.5151C48.0396 98.1546 48.4939 96.5489 48.4939 94.8084H44.4939ZM43.8283 97.131C43.3667 97.7464 42.7062 98.2574 41.7601 98.6329L43.2354 102.351C44.7758 101.74 46.069 100.81 47.0283 99.531L43.8283 97.131ZM41.7858 98.6229C40.8106 98.9943 39.6381 99.2023 38.2352 99.2023V103.202C40.0292 103.202 41.6984 102.937 43.2097 102.361L41.7858 98.6229ZM38.2352 99.2023C37.075 99.2023 35.9848 99.0793 34.9599 98.8402L34.051 102.736C35.3942 103.049 36.7906 103.202 38.2352 103.202V99.2023ZM34.9906 98.8476C33.9588 98.5896 33.063 98.2368 32.2891 97.8015L30.3281 101.288C31.4487 101.918 32.6841 102.394 34.0204 102.728L34.9906 98.8476ZM32.2891 97.8015C31.4929 97.3536 30.8603 96.8615 30.3661 96.3373L27.4557 99.0814C28.2639 99.9385 29.2298 100.67 30.3281 101.288L32.2891 97.8015ZM30.5326 98.8798L32.9895 95.4757L29.7461 93.1348L27.2892 96.5389L30.5326 98.8798ZM29.853 95.6111C30.4868 96.3464 31.2413 96.9834 32.0967 97.5299L34.2502 94.1591C33.6848 93.7978 33.2354 93.4086 32.8826 92.9994L29.853 95.6111ZM32.1513 97.5636C33.0267 98.0841 33.9658 98.4935 34.9627 98.7949L36.1203 94.9661C35.4201 94.7544 34.7805 94.4732 34.1956 94.1254L32.1513 97.5636ZM34.9748 98.7986C36.0235 99.1084 37.0924 99.2653 38.176 99.2653V95.2653C37.4836 95.2653 36.7962 95.1657 36.1082 94.9625L34.9748 98.7986ZM38.176 99.2653C38.9827 99.2653 39.7679 99.1867 40.4752 98.9715L39.3105 95.1448C39.11 95.2058 38.7507 95.2653 38.176 95.2653V99.2653ZM40.4529 98.9781C41.1702 98.7689 41.9412 98.3853 42.5015 97.6721L39.3563 95.2009C39.3866 95.1623 39.4155 95.1337 39.4383 95.1141C39.4608 95.0948 39.4756 95.0856 39.4781 95.0841C39.4804 95.0828 39.4712 95.0885 39.4469 95.0987C39.4226 95.109 39.3854 95.1228 39.3329 95.1381L40.4529 98.9781ZM42.5015 97.6721C43.0147 97.019 43.2545 96.2505 43.2545 95.4597H39.2545C39.2545 95.452 39.256 95.4117 39.2757 95.3526C39.296 95.292 39.3261 95.2393 39.3563 95.2009L42.5015 97.6721ZM43.2545 95.4597C43.2545 94.5056 42.8871 93.626 42.1751 92.9615L39.4459 95.8857C39.4069 95.8493 39.3489 95.7796 39.3052 95.6777C39.262 95.5769 39.2545 95.4953 39.2545 95.4597H43.2545ZM42.2247 93.0094C41.5107 92.2954 40.4722 91.9489 39.5865 91.738L38.66 95.6292C38.999 95.7099 39.2248 95.7874 39.3634 95.8482C39.5136 95.9141 39.486 95.9276 39.3963 95.8378L42.2247 93.0094ZM39.5554 91.7309L35.9441 90.9316L35.0798 94.8371L38.6911 95.6364L39.5554 91.7309ZM35.9642 90.9362C34.9759 90.7068 34.13 90.415 33.4133 90.073L31.6904 93.6829C32.7103 94.1697 33.8378 94.5489 35.0597 94.8326L35.9642 90.9362ZM33.4628 90.0975C32.8766 89.7975 32.4688 89.4338 32.1817 89.0203L28.8962 91.3019C29.5958 92.3093 30.53 93.0901 31.6409 93.6584L33.4628 90.0975ZM32.1961 89.0414C31.9732 88.7115 31.7989 88.2173 31.7989 87.4378H27.7989C27.7989 88.8291 28.118 90.1504 28.8818 91.2808L32.1961 89.0414ZM31.7989 87.4378C31.7989 86.6047 32.0192 85.9281 32.4374 85.3377L29.1733 83.0257C28.2496 84.3297 27.7989 85.8239 27.7989 87.4378H31.7989ZM32.4485 85.3219C32.8746 84.7079 33.5252 84.1647 34.5079 83.7347L32.9046 80.0701C31.3614 80.7453 30.0781 81.7216 29.1622 83.0415L32.4485 85.3219ZM34.5079 83.7347C35.459 83.3186 36.682 83.0736 38.2352 83.0736V79.0736C36.2758 79.0736 34.4795 79.3811 32.9046 80.0701L34.5079 83.7347ZM61.2213 81.932L60.4558 83.7797C60.4664 83.7841 60.4769 83.7884 60.4876 83.7926L61.2213 81.932ZM64.8622 84.3889L66.4639 85.5866C67.0466 84.8074 66.984 83.7219 66.3155 83.0149L64.8622 84.3889ZM62.4053 87.6746L60.9594 89.0563C61.3657 89.4816 61.9387 89.7064 62.5259 89.671C63.113 89.6355 63.6548 89.3434 64.0071 88.8723L62.4053 87.6746ZM59.6524 85.6913L58.8026 87.5018C58.8173 87.5087 58.8321 87.5154 58.847 87.522L59.6524 85.6913ZM54.5611 85.2473L53.904 83.3583L53.904 83.3583L54.5611 85.2473ZM53.5842 85.8986L55.2117 87.061L55.2117 87.061L53.5842 85.8986ZM53.8507 87.9114L52.6114 89.4812C52.6415 89.505 52.6723 89.5279 52.7037 89.5499L53.8507 87.9114ZM55.7451 88.6218L55.3019 90.5721L55.3057 90.573L55.7451 88.6218ZM59.0308 89.3619L59.4834 87.4137L59.4703 87.4107L59.0308 89.3619ZM63.619 98.331L65.219 99.531C65.2229 99.5257 65.2268 99.5204 65.2307 99.5151L63.619 98.331ZM60.6885 100.492L61.4005 102.361C61.4091 102.358 61.4176 102.354 61.4262 102.351L60.6885 100.492ZM52.6962 100.788L52.2111 102.728C52.2213 102.731 52.2315 102.733 52.2418 102.736L52.6962 100.788ZM49.4993 99.5446L48.5188 101.288L49.4993 99.5446ZM47.1016 97.7093L45.4799 96.5389C44.9185 97.3167 44.9884 98.3835 45.6465 99.0814L47.1016 97.7093ZM49.5585 94.3052L51.0733 92.9994C50.6737 92.5358 50.0838 92.2807 49.4722 92.3071C48.8607 92.3335 48.295 92.6385 47.9368 93.1348L49.5585 94.3052ZM51.3642 95.8445L50.2874 97.5299C50.3054 97.5414 50.3236 97.5526 50.342 97.5636L51.3642 95.8445ZM53.7322 96.8805L53.1535 98.795L53.1656 98.7986L53.7322 96.8805ZM58.0836 97.0581L57.5236 95.1381C57.5161 95.1403 57.5087 95.1425 57.5013 95.1448L58.0836 97.0581ZM59.0012 94.4236L57.587 95.8378C57.6033 95.8541 57.6198 95.8701 57.6366 95.8857L59.0012 94.4236ZM57.314 93.6836L57.7772 91.738C57.7669 91.7355 57.7565 91.7332 57.7461 91.7309L57.314 93.6836ZM53.7026 92.8844L53.2504 94.8326C53.2571 94.8341 53.2638 94.8357 53.2705 94.8371L53.7026 92.8844ZM50.7425 91.878L49.8316 93.6584C49.848 93.6668 49.8645 93.675 49.8811 93.6829L50.7425 91.878ZM48.7297 90.1611L47.0725 91.2808C47.0773 91.2879 47.0821 91.2949 47.0869 91.3019L48.7297 90.1611ZM48.9961 84.1817L50.6281 85.3377C50.6319 85.3325 50.6356 85.3272 50.6393 85.3219L48.9961 84.1817ZM51.897 81.9024L51.0953 80.0701L51.897 81.9024ZM56.4259 83.0736C58.0336 83.0736 59.3631 83.327 60.4558 83.7797L61.9868 80.0843C60.3167 79.3924 58.4493 79.0736 56.4259 79.0736V83.0736ZM60.4876 83.7926C61.6184 84.2385 62.5858 84.8923 63.4089 85.7629L66.3155 83.0149C65.0863 81.7148 63.6264 80.7306 61.955 80.0715L60.4876 83.7926ZM63.2605 83.1912L60.8036 86.4769L64.0071 88.8723L66.4639 85.5866L63.2605 83.1912ZM63.8513 86.2929C62.8461 85.2409 61.7169 84.4147 60.4579 83.8607L58.847 87.522C59.5614 87.8363 60.2675 88.3323 60.9594 89.0563L63.8513 86.2929ZM60.5023 83.8809C59.2292 83.2833 57.8262 83.0105 56.3371 83.0105V87.0105C57.3345 87.0105 58.1418 87.1916 58.8026 87.5018L60.5023 83.8809ZM56.3371 83.0105C55.4871 83.0105 54.6489 83.0992 53.904 83.3583L55.2181 87.1363C55.381 87.0797 55.7268 87.0105 56.3371 87.0105V83.0105ZM53.904 83.3583C53.216 83.5976 52.4758 84.0094 51.9568 84.7361L55.2117 87.061C55.1498 87.1478 55.0944 87.187 55.0859 87.1926C55.0822 87.1951 55.0895 87.1898 55.1117 87.1792C55.1338 87.1685 55.1684 87.1536 55.2181 87.1363L53.904 83.3583ZM51.9568 84.7361C51.5055 85.3679 51.2882 86.0942 51.2882 86.8458H55.2882C55.2882 86.8556 55.2865 86.8902 55.2712 86.9391C55.2556 86.9889 55.233 87.0312 55.2117 87.061L51.9568 84.7361ZM51.2882 86.8458C51.2882 87.9705 51.8387 88.8712 52.6114 89.4812L55.0899 86.3417C55.0806 86.3343 55.1389 86.3782 55.1976 86.4895C55.2607 86.609 55.2882 86.7384 55.2882 86.8458H51.2882ZM52.7037 89.5499C53.421 90.052 54.3585 90.3577 55.3019 90.5721L56.1884 86.6716C55.3951 86.4913 55.0696 86.3234 54.9976 86.273L52.7037 89.5499ZM55.3057 90.573L58.5914 91.313L59.4703 87.4107L56.1846 86.6707L55.3057 90.573ZM58.5782 91.31C60.3711 91.7265 61.4031 92.2764 61.9405 92.7904L64.7054 89.8999C63.4273 88.6773 61.5979 87.905 59.4834 87.4138L58.5782 91.31ZM61.9405 92.7904C62.3947 93.2249 62.6846 93.8261 62.6846 94.8084H66.6846C66.6846 92.9096 66.0667 91.202 64.7054 89.8999L61.9405 92.7904ZM62.6846 94.8084C62.6846 95.8308 62.4285 96.5734 62.0072 97.1468L65.2307 99.5151C66.2303 98.1546 66.6846 96.5489 66.6846 94.8084H62.6846ZM62.019 97.131C61.5574 97.7464 60.8969 98.2574 59.9508 98.6329L61.4262 102.351C62.9666 101.74 64.2597 100.81 65.219 99.531L62.019 97.131ZM59.9765 98.6229C59.0013 98.9943 57.8288 99.2023 56.4259 99.2023V103.202C58.22 103.202 59.8891 102.937 61.4005 102.361L59.9765 98.6229ZM56.4259 99.2023C55.2657 99.2023 54.1756 99.0793 53.1507 98.8402L52.2418 102.736C53.5849 103.049 54.9813 103.202 56.4259 103.202V99.2023ZM53.1813 98.8476C52.1495 98.5896 51.2537 98.2368 50.4798 97.8015L48.5188 101.288C49.6394 101.918 50.8748 102.394 52.2111 102.728L53.1813 98.8476ZM50.4798 97.8015C49.6836 97.3536 49.0511 96.8615 48.5568 96.3373L45.6465 99.0814C46.4546 99.9385 47.4205 100.67 48.5188 101.288L50.4798 97.8015ZM48.7234 98.8798L51.1802 95.4757L47.9368 93.1348L45.4799 96.5389L48.7234 98.8798ZM48.0437 95.6111C48.6776 96.3464 49.432 96.9834 50.2874 97.5299L52.4409 94.1591C51.8755 93.7978 51.4262 93.4086 51.0733 92.9994L48.0437 95.6111ZM50.342 97.5636C51.2174 98.0841 52.1565 98.4935 53.1535 98.7949L54.311 94.9661C53.6109 94.7544 52.9712 94.4732 52.3863 94.1254L50.342 97.5636ZM53.1656 98.7986C54.2142 99.1084 55.2831 99.2653 56.3667 99.2653V95.2653C55.6743 95.2653 54.9869 95.1657 54.2989 94.9625L53.1656 98.7986ZM56.3667 99.2653C57.1734 99.2653 57.9587 99.1867 58.6659 98.9715L57.5013 95.1448C57.3008 95.2058 56.9414 95.2653 56.3667 95.2653V99.2653ZM58.6436 98.9781C59.3609 98.7689 60.1319 98.3853 60.6923 97.6721L57.547 95.2009C57.5773 95.1623 57.6062 95.1337 57.629 95.1141C57.6515 95.0948 57.6663 95.0856 57.6688 95.0841C57.6711 95.0828 57.6619 95.0885 57.6376 95.0987C57.6133 95.109 57.5761 95.1228 57.5236 95.1381L58.6436 98.9781ZM60.6923 97.6721C61.2055 97.019 61.4452 96.2505 61.4452 95.4597H57.4452C57.4452 95.452 57.4468 95.4117 57.4665 95.3526C57.4867 95.292 57.5168 95.2393 57.547 95.2009L60.6923 97.6721ZM61.4452 95.4597C61.4452 94.5056 61.0778 93.626 60.3659 92.9615L57.6366 95.8857C57.5976 95.8493 57.5396 95.7796 57.4959 95.6777C57.4527 95.5769 57.4452 95.4953 57.4452 95.4597H61.4452ZM60.4154 93.0094C59.7014 92.2954 58.6629 91.9489 57.7772 91.738L56.8507 95.6292C57.1897 95.7099 57.4155 95.7874 57.5541 95.8482C57.7043 95.9141 57.6768 95.9276 57.587 95.8378L60.4154 93.0094ZM57.7461 91.7309L54.1348 90.9316L53.2705 94.8371L56.8818 95.6364L57.7461 91.7309ZM54.1549 90.9362C53.1666 90.7068 52.3207 90.415 51.604 90.073L49.8811 93.6829C50.901 94.1697 52.0285 94.5489 53.2504 94.8326L54.1549 90.9362ZM51.6535 90.0975C51.0673 89.7975 50.6596 89.4338 50.3724 89.0203L47.0869 91.3019C47.7865 92.3093 48.7207 93.0901 49.8316 93.6584L51.6535 90.0975ZM50.3869 89.0414C50.164 88.7115 49.9897 88.2173 49.9897 87.4378H45.9897C45.9897 88.8291 46.3087 90.1504 47.0725 91.2808L50.3869 89.0414ZM49.9897 87.4378C49.9897 86.6047 50.2099 85.9281 50.6281 85.3377L47.364 83.0257C46.4403 84.3297 45.9897 85.8239 45.9897 87.4378H49.9897ZM50.6393 85.3219C51.0653 84.7079 51.7159 84.1647 52.6986 83.7347L51.0953 80.0701C49.5521 80.7453 48.2688 81.7216 47.3529 83.0415L50.6393 85.3219ZM52.6986 83.7347C53.6497 83.3186 54.8727 83.0736 56.4259 83.0736V79.0736C54.4665 79.0736 52.6702 79.3811 51.0953 80.0701L52.6986 83.7347ZM85.3361 86.7274L84.4059 88.4979C84.4178 88.5041 84.4297 88.5102 84.4417 88.5162L85.3361 86.7274ZM88.089 89.3619L86.3435 90.3382C86.3501 90.35 86.3568 90.3617 86.3636 90.3733L88.089 89.3619ZM88.089 97.6797L86.3561 96.6811L86.3507 96.6907L88.089 97.6797ZM85.3361 100.314L86.2427 102.097L86.2542 102.091L85.3361 100.314ZM77.1959 100.314L76.2778 102.091C76.2857 102.095 76.2936 102.099 76.3015 102.103L77.1959 100.314ZM74.4134 97.6797L72.6679 98.656C72.6745 98.6678 72.6812 98.6795 72.688 98.6912L74.4134 97.6797ZM74.4134 89.3619L72.6805 88.3633L72.6751 88.3728L74.4134 89.3619ZM77.1959 86.7274L78.0903 88.5162C78.0982 88.5123 78.1061 88.5083 78.1139 88.5042L77.1959 86.7274ZM78.8239 91.1379L76.9391 90.4691L78.8239 91.1379ZM78.8239 95.8741L76.9391 96.5429C76.9414 96.5495 76.9438 96.556 76.9462 96.5626L78.8239 95.8741ZM79.7712 97.2061L78.6087 98.8336C78.6262 98.8461 78.6439 98.8583 78.6618 98.8702L79.7712 97.2061ZM82.7609 97.2061L83.8703 98.8702C83.8882 98.8583 83.9058 98.8461 83.9233 98.8336L82.7609 97.2061ZM83.7081 95.8741L85.5858 96.5626C85.5882 96.556 85.5906 96.5495 85.5929 96.5429L83.7081 95.8741ZM83.7081 91.1379L85.5929 90.4691L83.7081 91.1379ZM81.2512 87.8098C82.546 87.8098 83.5772 88.0625 84.4059 88.4979L86.2664 84.9569C84.7665 84.1688 83.0744 83.8098 81.2512 83.8098V87.8098ZM84.4417 88.5162C85.264 88.9274 85.8865 89.521 86.3435 90.3382L89.8346 88.3856C88.9892 86.8741 87.7763 85.7114 86.2306 84.9385L84.4417 88.5162ZM86.3636 90.3733C86.8191 91.1503 87.0955 92.1655 87.0955 93.506H91.0955C91.0955 91.6101 90.7009 89.8626 89.8144 88.3504L86.3636 90.3733ZM87.0955 93.506C87.0955 94.8452 86.8195 95.8771 86.3562 96.6811L89.8219 98.6783C90.7004 97.1538 91.0955 95.4032 91.0955 93.506H87.0955ZM86.3507 96.6907C85.8934 97.4945 85.2626 98.101 84.4181 98.5374L86.2542 102.091C87.7777 101.304 88.9823 100.154 89.8274 98.6688L86.3507 96.6907ZM84.4296 98.5315C83.5956 98.9556 82.5557 99.2023 81.2512 99.2023V103.202C83.0647 103.202 84.7481 102.857 86.2426 102.097L84.4296 98.5315ZM81.2512 99.2023C79.9961 99.2023 78.9582 98.9593 78.0903 98.5254L76.3015 102.103C77.8017 102.853 79.4673 103.202 81.2512 103.202V99.2023ZM78.1139 98.5374C77.2644 98.0984 76.6175 97.485 76.1388 96.6683L72.688 98.6912C73.5512 100.164 74.7593 101.307 76.2778 102.091L78.1139 98.5374ZM76.1589 96.7034C75.7067 95.8949 75.4366 94.8548 75.4366 93.506H71.4366C71.4366 95.3936 71.8177 97.136 72.6679 98.656L76.1589 96.7034ZM75.4366 93.506C75.4366 92.1559 75.7071 91.1323 76.1517 90.3509L72.6751 88.3728C71.8172 89.8806 71.4366 91.6198 71.4366 93.506H75.4366ZM76.1462 90.3605C76.6244 89.5307 77.2628 88.93 78.0903 88.5162L76.3015 84.9385C74.7609 85.7088 73.5442 86.8645 72.6805 88.3633L76.1462 90.3605ZM78.1139 88.5042C78.9766 88.0585 80.006 87.8098 81.2512 87.8098V83.8098C79.4574 83.8098 77.7832 84.1728 76.2778 84.9505L78.1139 88.5042ZM81.2512 87.3915C80.3446 87.3915 79.4517 87.6152 78.6618 88.1418L80.8806 91.47C80.9195 91.444 81.0133 91.3915 81.2512 91.3915V87.3915ZM78.6618 88.1418C77.7927 88.7211 77.2567 89.574 76.9391 90.4691L80.7088 91.8067C80.8253 91.4783 80.9208 91.4432 80.8806 91.47L78.6618 88.1418ZM76.9391 90.4691C76.6182 91.3734 76.4983 92.4117 76.4983 93.506H80.4983C80.4983 92.6663 80.5955 92.1259 80.7088 91.8067L76.9391 90.4691ZM76.4983 93.506C76.4983 94.6003 76.6182 95.6386 76.9391 96.5429L80.7088 95.2053C80.5955 94.8861 80.4983 94.3457 80.4983 93.506H76.4983ZM76.9462 96.5626C77.2685 97.4418 77.7962 98.2532 78.6087 98.8336L80.9336 95.5787C80.9173 95.567 80.8135 95.4904 80.7017 95.1856L76.9462 96.5626ZM78.6618 98.8702C79.4517 99.3968 80.3446 99.6205 81.2512 99.6205V95.6205C81.0133 95.6205 80.9195 95.568 80.8806 95.542L78.6618 98.8702ZM81.2512 99.6205C82.1623 99.6205 83.0694 99.4041 83.8703 98.8702L81.6515 95.542C81.6235 95.5607 81.5242 95.6205 81.2512 95.6205V99.6205ZM83.9233 98.8336C84.7358 98.2532 85.2635 97.4418 85.5858 96.5626L81.8303 95.1856C81.7186 95.4904 81.6147 95.567 81.5984 95.5787L83.9233 98.8336ZM85.5929 96.5429C85.9138 95.6386 86.0337 94.6003 86.0337 93.506H82.0337C82.0337 94.3457 81.9365 94.8861 81.8232 95.2053L85.5929 96.5429ZM86.0337 93.506C86.0337 92.4117 85.9138 91.3734 85.5929 90.4691L81.8232 91.8067C81.9365 92.1259 82.0337 92.6663 82.0337 93.506H86.0337ZM85.5929 90.4691C85.2753 89.574 84.7393 88.7211 83.8703 88.1418L81.6515 91.47C81.6113 91.4432 81.7067 91.4783 81.8232 91.8067L85.5929 90.4691ZM83.8703 88.1418C83.0694 87.6079 82.1623 87.3915 81.2512 87.3915V91.3915C81.5242 91.3915 81.6235 91.4513 81.6515 91.47L83.8703 88.1418ZM91.0383 100.906H89.0383C89.0383 102.011 89.9337 102.906 91.0383 102.906V100.906ZM91.0383 86.1058V84.1058C89.9337 84.1058 89.0383 85.0012 89.0383 86.1058H91.0383ZM95.4784 86.1058L97.4742 85.9764C97.406 84.9243 96.5328 84.1058 95.4784 84.1058V86.1058ZM95.6856 89.3027L93.6898 89.432C93.7515 90.3845 94.4777 91.1606 95.424 91.2855C96.3703 91.4103 97.2729 90.8491 97.5796 89.9453L95.6856 89.3027ZM97.3433 86.7274L96.079 85.1777C96.0723 85.1832 96.0655 85.1887 96.0588 85.1943L97.3433 86.7274ZM101.132 85.8986L100.682 87.8473C100.693 87.8497 100.703 87.852 100.713 87.8542L101.132 85.8986ZM101.783 86.1354L103.769 86.3764C103.862 85.6059 103.502 84.8508 102.843 84.4394L101.783 86.1354ZM101.28 90.2795L100.537 92.1365C101.114 92.3671 101.765 92.3168 102.299 92.0003C102.834 91.6838 103.191 91.1371 103.266 90.5206L101.28 90.2795ZM100.511 90.1019L100.118 92.0631C100.166 92.0726 100.214 92.0804 100.263 92.0864L100.511 90.1019ZM96.5144 91.5523L94.8111 90.5041C94.8072 90.5105 94.8033 90.5169 94.7995 90.5233L96.5144 91.5523ZM96.0704 100.906V102.906C97.175 102.906 98.0704 102.011 98.0704 100.906H96.0704ZM93.0383 100.906V86.1058H89.0383V100.906H93.0383ZM91.0383 88.1058H95.4784V84.1058H91.0383V88.1058ZM93.4826 86.2351L93.6898 89.432L97.6814 89.1733L97.4742 85.9764L93.4826 86.2351ZM97.5796 89.9453C97.8633 89.1092 98.2356 88.589 98.6277 88.2604L96.0588 85.1943C94.9907 86.0893 94.2579 87.286 93.7917 88.6601L97.5796 89.9453ZM98.6075 88.2771C98.9378 88.0077 99.4132 87.8098 100.185 87.8098V83.8098C98.6676 83.8098 97.2485 84.2236 96.079 85.1777L98.6075 88.2771ZM100.185 87.8098C100.467 87.8098 100.621 87.8331 100.682 87.8473L101.582 83.9498C101.13 83.8456 100.653 83.8098 100.185 83.8098V87.8098ZM100.713 87.8542C100.746 87.8612 100.771 87.8675 100.789 87.8726C100.807 87.8777 100.817 87.881 100.819 87.8817C100.821 87.8825 100.813 87.8799 100.798 87.8725C100.782 87.8653 100.757 87.8521 100.723 87.8314L102.843 84.4394C102.414 84.1712 101.949 84.0283 101.551 83.943L100.713 87.8542ZM99.798 85.8943L99.2948 90.0384L103.266 90.5206L103.769 86.3764L99.798 85.8943ZM102.023 88.4225C101.609 88.2571 101.169 88.1686 100.759 88.1173L100.263 92.0864C100.366 92.0994 100.44 92.1132 100.49 92.1247C100.541 92.1364 100.553 92.1428 100.537 92.1365L102.023 88.4225ZM100.903 88.1407C100.435 88.0472 99.9292 88.0131 99.4153 88.0131V92.0131C99.7697 92.0131 99.994 92.0382 100.118 92.0631L100.903 88.1407ZM99.4153 88.0131C98.5231 88.0131 97.6631 88.2091 96.8633 88.609L98.6521 92.1868C98.8784 92.0736 99.1235 92.0131 99.4153 92.0131V88.0131ZM96.8633 88.609C95.9997 89.0408 95.3119 89.6903 94.8111 90.5041L98.2178 92.6005C98.3484 92.3882 98.4895 92.2681 98.6521 92.1868L96.8633 88.609ZM94.7995 90.5233C94.2641 91.4155 94.0704 92.4333 94.0704 93.4468H98.0704C98.0704 92.9211 98.1727 92.6758 98.2294 92.5813L94.7995 90.5233ZM94.0704 93.4468V100.906H98.0704V93.4468H94.0704ZM96.0704 98.9062H91.0383V102.906H96.0704V98.9062ZM108.597 100.906L106.649 100.455C106.511 101.049 106.652 101.673 107.032 102.151C107.411 102.628 107.988 102.906 108.597 102.906V100.906ZM113.126 81.3696V79.3696C112.196 79.3696 111.388 80.0114 111.178 80.9179L113.126 81.3696ZM126.269 82.8497L124.976 84.3754C124.985 84.3833 124.995 84.391 125.004 84.3987L126.269 82.8497ZM127.039 90.5459L125.385 89.4213C125.38 89.4289 125.375 89.4365 125.37 89.4442L127.039 90.5459ZM124.375 92.8548L125.231 94.6623C125.239 94.6582 125.248 94.6541 125.257 94.6499L124.375 92.8548ZM120.556 93.7428L120.473 91.7445C120.346 91.7498 120.219 91.7673 120.095 91.7967L120.556 93.7428ZM119.431 94.0092V96.0092C119.587 96.0092 119.741 95.9912 119.892 95.9554L119.431 94.0092ZM114.754 94.0092L112.805 93.5618C112.669 94.1555 112.811 94.7788 113.19 95.2553C113.569 95.7317 114.145 96.0092 114.754 96.0092V94.0092ZM115.583 90.3979V88.3979C114.651 88.3979 113.842 89.0419 113.634 89.9505L115.583 90.3979ZM121.385 90.0131L120.517 88.2111C120.508 88.2154 120.5 88.2198 120.491 88.2242L121.385 90.0131ZM122.599 88.9475L124.307 89.9873C124.314 89.9767 124.32 89.966 124.326 89.9552L122.599 88.9475ZM122.243 85.7506L121.105 87.3949C121.12 87.405 121.134 87.4148 121.149 87.4245L122.243 85.7506ZM117.241 85.2177V83.2177C116.311 83.2177 115.503 83.8593 115.293 84.7656L117.241 85.2177ZM113.6 100.906V102.906C114.53 102.906 115.338 102.265 115.548 101.358L113.6 100.906ZM121.237 100.906L119.366 101.613C119.66 102.391 120.405 102.906 121.237 102.906V100.906ZM118.04 92.4404L117.736 90.4636C117.14 90.5553 116.617 90.9111 116.313 91.4318C116.009 91.9526 115.956 92.5828 116.169 93.1469L118.04 92.4404ZM122.658 91.7299L124.511 90.9769C124.162 90.1187 123.269 89.6123 122.354 89.7532L122.658 91.7299ZM126.388 100.906V102.906C127.053 102.906 127.675 102.575 128.047 102.023C128.418 101.471 128.491 100.77 128.24 100.153L126.388 100.906ZM110.546 101.358L115.075 81.8213L111.178 80.9179L106.649 100.455L110.546 101.358ZM113.126 83.3696H121.503V79.3696H113.126V83.3696ZM121.503 83.3696C123.196 83.3696 124.275 83.7811 124.976 84.3754L127.562 81.3239C125.935 79.9449 123.837 79.3696 121.503 79.3696V83.3696ZM125.004 84.3987C125.651 84.9266 126.045 85.6784 126.045 86.9346H130.045C130.045 84.6781 129.256 82.7066 127.534 81.3006L125.004 84.3987ZM126.045 86.9346C126.045 88.0323 125.79 88.8254 125.385 89.4213L128.693 91.6705C129.629 90.293 130.045 88.6785 130.045 86.9346H126.045ZM125.37 89.4442C124.926 90.1158 124.318 90.6543 123.493 91.0597L125.257 94.6499C126.681 93.9502 127.849 92.9494 128.708 91.6476L125.37 89.4442ZM123.519 91.0473C122.668 91.4502 121.664 91.6949 120.473 91.7445L120.639 95.7411C122.29 95.6723 123.832 95.325 125.231 94.6623L123.519 91.0473ZM120.095 91.7967L118.97 92.0631L119.892 95.9554L121.017 95.689L120.095 91.7967ZM119.431 92.0092H114.754V96.0092H119.431V92.0092ZM116.704 94.4566L117.533 90.8453L113.634 89.9505L112.805 93.5618L116.704 94.4566ZM115.583 92.3979H119.461V88.3979H115.583V92.3979ZM119.461 92.3979C120.44 92.3979 121.41 92.2364 122.279 91.8019L120.491 88.2242C120.333 88.3028 120.021 88.3979 119.461 88.3979V92.3979ZM122.253 91.8151C123.093 91.4106 123.808 90.8077 124.307 89.9873L120.89 87.9076C120.837 87.995 120.743 88.1025 120.517 88.2111L122.253 91.8151ZM124.326 89.9552C124.782 89.1732 125.013 88.312 125.013 87.4082H121.013C121.013 87.6095 120.968 87.7745 120.871 87.9397L124.326 89.9552ZM125.013 87.4082C125.013 86.1594 124.562 84.8772 123.338 84.0766L121.149 87.4245C121.129 87.4113 121.099 87.3878 121.069 87.3527C121.038 87.3176 121.018 87.2836 121.007 87.2588C120.985 87.2113 121.013 87.2401 121.013 87.4082H125.013ZM123.382 84.1062C122.448 83.4594 121.356 83.2177 120.26 83.2177V87.2177C120.782 87.2177 121.013 87.3312 121.105 87.3949L123.382 84.1062ZM120.26 83.2177H117.241V87.2177H120.26V83.2177ZM115.293 84.7656L111.652 100.454L115.548 101.358L119.189 85.6699L115.293 84.7656ZM113.6 98.9062H108.597V102.906H113.6V98.9062ZM123.108 100.2L119.911 91.7338L116.169 93.1469L119.366 101.613L123.108 100.2ZM118.344 94.4171L122.962 93.7067L122.354 89.7532L117.736 90.4636L118.344 94.4171ZM120.805 92.483L124.535 101.659L128.24 100.153L124.511 90.9769L120.805 92.483ZM126.388 98.9062H121.237V102.906H126.388V98.9062ZM131.893 100.137L130.935 101.892L131.893 100.137ZM129.17 97.0581L131.038 96.3438L129.17 97.0581ZM129.051 92.2332L127.104 91.7769L127.103 91.7819L129.051 92.2332ZM131.597 81.3696V79.3696C130.668 79.3696 129.862 80.009 129.65 80.9133L131.597 81.3696ZM136.689 81.3696L138.639 81.8135C138.774 81.2202 138.631 80.5978 138.252 80.1222C137.872 79.6466 137.297 79.3696 136.689 79.3696V81.3696ZM134.054 92.9436L132.104 92.4997C132.102 92.5089 132.1 92.5181 132.098 92.5274L134.054 92.9436ZM134.054 95.2821L132.145 95.8786C132.151 95.8966 132.157 95.9144 132.163 95.9322L134.054 95.2821ZM135.179 96.7325L134.113 98.425C134.137 98.4402 134.162 98.4548 134.187 98.469L135.179 96.7325ZM139.767 96.2293L138.309 94.8599L139.767 96.2293ZM141.099 93.358L139.151 92.9058C139.149 92.9141 139.147 92.9223 139.145 92.9306L141.099 93.358ZM143.882 81.3696V79.3696C142.951 79.3696 142.144 80.0111 141.933 80.9174L143.882 81.3696ZM148.943 81.3696L150.892 81.8211C151.029 81.227 150.888 80.6026 150.509 80.1252C150.13 79.6478 149.553 79.3696 148.943 79.3696V81.3696ZM146.131 93.506L148.078 93.9624L148.08 93.9575L146.131 93.506ZM142.994 99.2486L144.305 100.759L142.994 99.2486ZM136.777 99.2023C135.056 99.2023 133.781 98.8882 132.851 98.3808L130.935 101.892C132.61 102.806 134.591 103.202 136.777 103.202V99.2023ZM132.851 98.3808C131.951 97.8901 131.375 97.2257 131.038 96.3438L127.302 97.7724C127.991 99.5743 129.23 100.962 130.935 101.892L132.851 98.3808ZM131.038 96.3438C130.708 95.4807 130.626 94.3002 131 92.6844L127.103 91.7819C126.609 93.9155 126.606 95.9517 127.302 97.7724L131.038 96.3438ZM130.999 92.6895L133.544 81.8259L129.65 80.9133L127.104 91.7769L130.999 92.6895ZM131.597 83.3696H136.689V79.3696H131.597V83.3696ZM134.738 80.9257L132.104 92.4997L136.004 93.3875L138.639 81.8135L134.738 80.9257ZM132.098 92.5274C131.858 93.6541 131.81 94.8075 132.145 95.8786L135.963 94.6855C135.903 94.4937 135.855 94.0881 136.01 93.3598L132.098 92.5274ZM132.163 95.9322C132.518 96.9671 133.17 97.831 134.113 98.425L136.244 95.04C136.122 94.963 136.024 94.86 135.945 94.6319L132.163 95.9322ZM134.187 98.469C135.113 98.9982 136.157 99.2061 137.221 99.2061V95.2061C136.668 95.2061 136.35 95.0983 136.171 94.996L134.187 98.469ZM137.221 99.2061C138.731 99.2061 140.156 98.7367 141.225 97.5986L138.309 94.8599C138.155 95.0243 137.882 95.2061 137.221 95.2061V99.2061ZM141.225 97.5986C142.171 96.5917 142.732 95.2529 143.053 93.7854L139.145 92.9306C138.914 93.9891 138.587 94.5644 138.309 94.8599L141.225 97.5986ZM143.047 93.8102L145.83 81.8218L141.933 80.9174L139.151 92.9058L143.047 93.8102ZM143.882 83.3696H148.943V79.3696H143.882V83.3696ZM146.995 80.9182L144.183 93.0546L148.08 93.9575L150.892 81.8211L146.995 80.9182ZM144.184 93.0496C143.659 95.291 142.78 96.7853 141.682 97.7385L144.305 100.759C146.207 99.107 147.42 96.7729 148.078 93.9624L144.184 93.0496ZM141.682 97.7385C140.652 98.6331 139.101 99.2023 136.777 99.2023V103.202C139.742 103.202 142.335 102.469 144.305 100.759L141.682 97.7385ZM152.558 100.166L151.537 101.886C151.549 101.893 151.56 101.9 151.572 101.906L152.558 100.166ZM149.775 97.2357L148.02 98.1954L149.775 97.2357ZM149.45 88.2666L151.341 88.9153L151.344 88.9071L149.45 88.2666ZM151.522 84.5369L149.987 83.2538L151.522 84.5369ZM154.867 81.9912L154.037 80.1714L154.027 80.1761L154.867 81.9912ZM163.362 81.784L162.597 83.6321C162.61 83.6373 162.623 83.6424 162.636 83.6474L163.362 81.784ZM166.233 83.8265L164.691 85.1002C164.697 85.1068 164.702 85.1134 164.708 85.1199L166.233 83.8265ZM167.684 87.1714L168.06 89.1358C169.113 88.9341 169.82 87.9372 169.662 86.8762L167.684 87.1714ZM162.888 88.089L160.908 88.3663C160.984 88.9088 161.279 89.3964 161.724 89.7153C162.17 90.0341 162.726 90.1563 163.264 90.0534L162.888 88.089ZM161.793 85.8394L160.483 87.3507V87.3507L161.793 85.8394ZM157.087 85.6321L156.132 83.8744C156.125 83.8783 156.118 83.8823 156.111 83.8863L157.087 85.6321ZM155.34 87.201L153.729 86.0162C153.721 86.0266 153.714 86.0371 153.706 86.0476L155.34 87.201ZM154.245 89.5395L156.163 90.1062L156.166 90.0946L154.245 89.5395ZM154.334 94.9861L156.177 94.2099V94.2099L154.334 94.9861ZM155.755 96.7325L154.657 98.4046C154.67 98.4127 154.682 98.4207 154.695 98.4285L155.755 96.7325ZM160.076 96.9693L160.864 98.8076L160.076 96.9693ZM161.438 95.9925L162.956 97.2941C162.966 97.2825 162.976 97.2708 162.986 97.259L161.438 95.9925ZM162.237 94.5124L160.358 93.829C160.349 93.8526 160.341 93.8764 160.333 93.9004L162.237 94.5124ZM162.474 93.8612L164.354 94.5447C164.577 93.9316 164.486 93.2482 164.112 92.7138C163.738 92.1794 163.126 91.8612 162.474 91.8612V93.8612ZM157.797 93.8612L155.847 93.4165C155.712 94.0099 155.854 94.6325 156.233 95.1083C156.613 95.5841 157.188 95.8612 157.797 95.8612V93.8612ZM158.567 90.4867V88.4867C157.633 88.4867 156.824 89.1321 156.617 90.042L158.567 90.4867ZM167.269 90.4867L169.21 90.9718C169.359 90.3743 169.225 89.7413 168.846 89.2559C168.467 88.7704 167.885 88.4867 167.269 88.4867V90.4867ZM164.664 100.906V102.906C165.582 102.906 166.382 102.282 166.605 101.391L164.664 100.906ZM161.29 100.906L159.334 100.49C159.208 101.08 159.356 101.696 159.735 102.165C160.115 102.634 160.686 102.906 161.29 102.906V100.906ZM162.267 96.3181L163.726 94.9502C163.216 94.4069 162.447 94.1916 161.73 94.3915C161.013 94.5913 160.466 95.1732 160.311 95.9016L162.267 96.3181ZM162.711 96.7917L164.583 97.494C164.851 96.7814 164.69 95.979 164.17 95.4238L162.711 96.7917ZM161.349 99.1894L162.874 100.483L161.349 99.1894ZM159.336 100.669L160.119 102.51L159.336 100.669ZM156.524 99.1727C155.383 99.1727 154.405 98.9143 153.544 98.4262L151.572 101.906C153.078 102.76 154.744 103.173 156.524 103.173V99.1727ZM153.578 98.4461C152.742 97.9502 152.06 97.245 151.53 96.2761L148.02 98.1954C148.872 99.7524 150.045 101.001 151.537 101.886L153.578 98.4461ZM151.53 96.2761C151.032 95.3655 150.739 94.2009 150.739 92.7068H146.739C146.739 94.7253 147.137 96.58 148.02 98.1954L151.53 96.2761ZM150.739 92.7068C150.739 91.3309 150.945 90.0716 151.341 88.9153L147.558 87.618C147.007 89.2244 146.739 90.9253 146.739 92.7068H150.739ZM151.344 88.9071C151.742 87.7299 152.314 86.7068 153.056 85.82L149.987 83.2538C148.914 84.5377 148.104 86.0011 147.555 87.6262L151.344 88.9071ZM153.056 85.82C153.768 84.9679 154.644 84.2979 155.706 83.8063L154.027 80.1761C152.445 80.908 151.09 81.9352 149.987 83.2538L153.056 85.82ZM155.696 83.811C156.735 83.3373 157.984 83.0736 159.484 83.0736V79.0736C157.512 79.0736 155.681 79.4217 154.037 80.1714L155.696 83.811ZM159.484 83.0736C160.705 83.0736 161.731 83.2737 162.597 83.6321L164.127 79.936C162.703 79.3471 161.145 79.0736 159.484 79.0736V83.0736ZM162.636 83.6474C163.502 83.9853 164.172 84.4715 164.691 85.1002L167.775 82.5527C166.795 81.3659 165.55 80.4905 164.088 79.9206L162.636 83.6474ZM164.708 85.1199C165.208 85.7096 165.556 86.4661 165.706 87.4666L169.662 86.8762C169.416 85.2323 168.798 83.7589 167.759 82.5331L164.708 85.1199ZM167.308 85.207L162.512 86.1247L163.264 90.0534L168.06 89.1358L167.308 85.207ZM164.869 87.8117C164.683 86.4801 164.151 85.2364 163.103 84.328L160.483 87.3507C160.619 87.4685 160.818 87.7246 160.908 88.3663L164.869 87.8117ZM163.103 84.328C162.047 83.4128 160.721 83.0697 159.366 83.0697V87.0697C160.063 87.0697 160.355 87.2397 160.483 87.3507L163.103 84.328ZM159.366 83.0697C158.223 83.0697 157.132 83.3317 156.132 83.8744L158.041 87.3899C158.422 87.1827 158.852 87.0697 159.366 87.0697V83.0697ZM156.111 83.8863C155.17 84.412 154.377 85.1344 153.729 86.0162L156.951 88.3858C157.29 87.9256 157.661 87.6022 158.062 87.378L156.111 83.8863ZM153.706 86.0476C153.089 86.9219 152.634 87.9089 152.323 88.9844L156.166 90.0946C156.369 89.394 156.644 88.822 156.974 88.3544L153.706 86.0476ZM152.327 88.9728C152.011 90.0408 151.86 91.1605 151.86 92.322H155.86C155.86 91.51 155.965 90.7748 156.163 90.1062L152.327 88.9728ZM151.86 92.322C151.86 93.5476 152.048 94.7115 152.49 95.7622L156.177 94.2099C155.988 93.7608 155.86 93.1487 155.86 92.322H151.86ZM152.49 95.7622C152.948 96.8485 153.668 97.7552 154.657 98.4046L156.852 95.0604C156.578 94.881 156.351 94.6234 156.177 94.2099L152.49 95.7622ZM154.695 98.4285C155.72 99.0693 156.901 99.3245 158.123 99.3245V95.3245C157.449 95.3245 157.052 95.1851 156.815 95.0365L154.695 98.4285ZM158.123 99.3245C159.078 99.3245 160.009 99.174 160.864 98.8076L159.288 95.131C159.038 95.2383 158.667 95.3245 158.123 95.3245V99.3245ZM160.864 98.8076C161.669 98.4626 162.382 97.9637 162.956 97.2941L159.919 94.6909C159.783 94.8501 159.589 95.0024 159.288 95.131L160.864 98.8076ZM162.986 97.259C163.505 96.6242 163.89 95.9071 164.141 95.1245L160.333 93.9004C160.229 94.2229 160.081 94.4925 159.89 94.726L162.986 97.259ZM164.117 95.1959L164.354 94.5447L160.594 93.1777L160.358 93.829L164.117 95.1959ZM162.474 91.8612H157.797V95.8612H162.474V91.8612ZM159.747 94.3059L160.517 90.9314L156.617 90.042L155.847 93.4165L159.747 94.3059ZM158.567 92.4867H167.269V88.4867H158.567V92.4867ZM165.329 90.0016L162.724 100.421L166.605 101.391L169.21 90.9718L165.329 90.0016ZM164.664 98.9062H161.29V102.906H164.664V98.9062ZM163.246 101.323L164.223 96.7346L160.311 95.9016L159.334 100.49L163.246 101.323ZM160.808 97.686L161.252 98.1596L164.17 95.4238L163.726 94.9502L160.808 97.686ZM160.838 96.0895C160.549 96.8598 160.203 97.449 159.824 97.8954L162.874 100.483C163.6 99.6273 164.162 98.6181 164.583 97.494L160.838 96.0895ZM159.824 97.8954C159.474 98.308 159.058 98.6146 158.554 98.8288L160.119 102.51C161.193 102.053 162.119 101.373 162.874 100.483L159.824 97.8954ZM158.554 98.8288C158.068 99.0352 157.409 99.1727 156.524 99.1727V103.173C157.81 103.173 159.026 102.975 160.119 102.51L158.554 98.8288ZM168.182 100.581L166.933 102.142C166.956 102.161 166.979 102.178 167.002 102.195L168.182 100.581ZM168.271 96.6733L169.685 98.0875C169.694 98.0793 169.702 98.0709 169.71 98.0625L168.271 96.6733ZM172.504 96.4069L171.255 97.9686C171.265 97.9766 171.275 97.9844 171.285 97.9921L172.504 96.4069ZM172.445 100.314L171.031 98.9C171.022 98.9086 171.014 98.9172 171.005 98.926L172.445 100.314ZM170.195 99.1431C169.662 99.1431 169.442 99.0239 169.362 98.9659L167.002 102.195C167.949 102.887 169.071 103.143 170.195 103.143V99.1431ZM169.432 99.0189C169.427 99.015 169.432 99.0184 169.441 99.0298C169.45 99.0415 169.456 99.0527 169.459 99.0595C169.466 99.0747 169.442 99.0333 169.442 98.8934H165.442C165.442 100.125 165.888 101.306 166.933 102.142L169.432 99.0189ZM169.442 98.8934C169.442 98.3898 169.577 98.1959 169.685 98.0875L166.857 95.2591C165.86 96.2559 165.442 97.5419 165.442 98.8934H169.442ZM169.71 98.0625C169.815 97.9542 170.005 97.8149 170.521 97.8149V93.8149C169.143 93.8149 167.833 94.2479 166.832 95.2841L169.71 98.0625ZM170.521 97.8149C171.038 97.8149 171.213 97.9355 171.255 97.9686L173.753 94.8452C172.808 94.089 171.661 93.8149 170.521 93.8149V97.8149ZM171.285 97.9921C171.294 97.9993 171.291 97.9983 171.282 97.9877C171.273 97.9767 171.266 97.9645 171.262 97.9547C171.251 97.9324 171.274 97.9642 171.274 98.0942H175.274C175.274 96.8337 174.796 95.647 173.724 94.8217L171.285 97.9921ZM171.274 98.0942C171.274 98.5977 171.139 98.7917 171.031 98.9L173.859 101.728C174.856 100.732 175.274 99.4456 175.274 98.0942H171.274ZM171.005 98.926C170.942 98.9917 170.769 99.1431 170.195 99.1431V103.143C171.556 103.143 172.882 102.742 173.885 101.703L171.005 98.926Z" fill="#004065" mask="url(#path-7-outside-2_2020_38387)"/>
<defs>
<linearGradient id="paint0_linear_2020_38387" x1="124.623" y1="32.4527" x2="54.6384" y2="32.4527" gradientUnits="userSpaceOnUse">
<stop stop-color="#FF2CF7"/>
<stop offset="1" stop-color="#CCFF00"/>
</linearGradient>
</defs>
</svg>
