<svg width="64" height="66" viewBox="0 0 64 66" fill="none" xmlns="http://www.w3.org/2000/svg">
<mask id="path-1-outside-1_2033_14601" maskUnits="userSpaceOnUse" x="0.050293" y="0.496094" width="64" height="65" fill="black">
<rect fill="white" x="0.050293" y="0.496094" width="64" height="65"/>
<path fill-rule="evenodd" clip-rule="evenodd" d="M40.1157 5.18903C42.1252 4.06041 44.5476 3.49609 47.3829 3.49609C50.1907 3.49609 52.6269 4.06041 54.6915 5.18903C56.7285 6.29012 58.2976 7.88671 59.3987 9.9788C60.4997 12.0709 61.0503 14.5896 61.0503 17.5351C61.0503 20.4805 60.4997 22.9992 59.3987 25.0913C58.2976 27.1834 56.7285 28.7938 54.6915 29.9224C52.6269 31.0235 50.1907 31.574 47.3829 31.574C44.5476 31.574 42.1252 31.0235 40.1157 29.9224C38.0787 28.7938 36.5234 27.1834 35.4498 25.0913C34.3487 22.9992 33.7982 20.4805 33.7982 17.5351C33.7982 14.5896 34.3487 12.0709 35.4498 9.9788C36.5234 7.88671 38.0787 6.29012 40.1157 5.18903ZM9.58468 5.18903C11.5942 4.06041 14.0166 3.49609 16.8519 3.49609C19.6597 3.49609 22.0959 4.06041 24.1604 5.18903C26.1975 6.29012 27.7665 7.88671 28.8676 9.9788C29.9687 12.0709 30.5193 14.5896 30.5193 17.5351C30.5193 20.4805 29.9687 22.9992 28.8676 25.0913C27.7665 27.1834 26.1975 28.7938 24.1604 29.9224C22.0959 31.0235 19.6597 31.574 16.8519 31.574C14.0166 31.574 11.5942 31.0235 9.58468 29.9224C7.54765 28.7938 5.99236 27.1834 4.91879 25.0913C3.81769 22.9992 3.26714 20.4805 3.26714 17.5351C3.26714 14.5896 3.81769 12.0709 4.91879 9.9788C5.99236 7.88671 7.54765 6.29012 9.58468 5.18903ZM16.8519 34.0859C14.0166 34.0859 11.5942 34.6502 9.58471 35.7789C7.54769 36.88 5.99239 38.4766 4.91882 40.5686C3.81773 42.6607 3.26718 45.1795 3.26718 48.1249C3.26718 51.0703 3.81773 53.5891 4.91882 55.6812C5.99239 57.7733 7.54769 59.3836 9.58471 60.5122C11.5942 61.6133 14.0166 62.1639 16.8519 62.1639C19.6597 62.1639 22.0959 61.6133 24.1605 60.5122C26.1975 59.3836 27.7666 57.7733 28.8676 55.6812C29.9687 53.5891 30.5193 51.0703 30.5193 48.1249C30.5193 45.1795 29.9687 42.6607 28.8676 40.5686C27.7666 38.4766 26.1975 36.88 24.1605 35.7789C22.0959 34.6502 19.6597 34.0859 16.8519 34.0859ZM39.8044 36.0172C41.8139 34.8885 44.2363 34.3242 47.0717 34.3242C49.8795 34.3242 52.3156 34.8885 54.3802 36.0172C56.4172 37.1182 57.9863 38.7148 59.0874 40.8069C60.1885 42.899 60.739 45.4178 60.739 48.3632C60.739 51.3086 60.1885 53.8274 59.0874 55.9195C57.9863 58.0115 56.4172 59.6219 54.3802 60.7505C52.3156 61.8516 49.8795 62.4022 47.0717 62.4022C44.2363 62.4022 41.8139 61.8516 39.8044 60.7505C37.7674 59.6219 36.2121 58.0115 35.1385 55.9195C34.0375 53.8274 33.4869 51.3086 33.4869 48.3632C33.4869 45.4178 34.0375 42.899 35.1385 40.8069C36.2121 38.7148 37.7674 37.1182 39.8044 36.0172Z"/>
</mask>
<path fill-rule="evenodd" clip-rule="evenodd" d="M40.1157 5.18903C42.1252 4.06041 44.5476 3.49609 47.3829 3.49609C50.1907 3.49609 52.6269 4.06041 54.6915 5.18903C56.7285 6.29012 58.2976 7.88671 59.3987 9.9788C60.4997 12.0709 61.0503 14.5896 61.0503 17.5351C61.0503 20.4805 60.4997 22.9992 59.3987 25.0913C58.2976 27.1834 56.7285 28.7938 54.6915 29.9224C52.6269 31.0235 50.1907 31.574 47.3829 31.574C44.5476 31.574 42.1252 31.0235 40.1157 29.9224C38.0787 28.7938 36.5234 27.1834 35.4498 25.0913C34.3487 22.9992 33.7982 20.4805 33.7982 17.5351C33.7982 14.5896 34.3487 12.0709 35.4498 9.9788C36.5234 7.88671 38.0787 6.29012 40.1157 5.18903ZM9.58468 5.18903C11.5942 4.06041 14.0166 3.49609 16.8519 3.49609C19.6597 3.49609 22.0959 4.06041 24.1604 5.18903C26.1975 6.29012 27.7665 7.88671 28.8676 9.9788C29.9687 12.0709 30.5193 14.5896 30.5193 17.5351C30.5193 20.4805 29.9687 22.9992 28.8676 25.0913C27.7665 27.1834 26.1975 28.7938 24.1604 29.9224C22.0959 31.0235 19.6597 31.574 16.8519 31.574C14.0166 31.574 11.5942 31.0235 9.58468 29.9224C7.54765 28.7938 5.99236 27.1834 4.91879 25.0913C3.81769 22.9992 3.26714 20.4805 3.26714 17.5351C3.26714 14.5896 3.81769 12.0709 4.91879 9.9788C5.99236 7.88671 7.54765 6.29012 9.58468 5.18903ZM16.8519 34.0859C14.0166 34.0859 11.5942 34.6502 9.58471 35.7789C7.54769 36.88 5.99239 38.4766 4.91882 40.5686C3.81773 42.6607 3.26718 45.1795 3.26718 48.1249C3.26718 51.0703 3.81773 53.5891 4.91882 55.6812C5.99239 57.7733 7.54769 59.3836 9.58471 60.5122C11.5942 61.6133 14.0166 62.1639 16.8519 62.1639C19.6597 62.1639 22.0959 61.6133 24.1605 60.5122C26.1975 59.3836 27.7666 57.7733 28.8676 55.6812C29.9687 53.5891 30.5193 51.0703 30.5193 48.1249C30.5193 45.1795 29.9687 42.6607 28.8676 40.5686C27.7666 38.4766 26.1975 36.88 24.1605 35.7789C22.0959 34.6502 19.6597 34.0859 16.8519 34.0859ZM39.8044 36.0172C41.8139 34.8885 44.2363 34.3242 47.0717 34.3242C49.8795 34.3242 52.3156 34.8885 54.3802 36.0172C56.4172 37.1182 57.9863 38.7148 59.0874 40.8069C60.1885 42.899 60.739 45.4178 60.739 48.3632C60.739 51.3086 60.1885 53.8274 59.0874 55.9195C57.9863 58.0115 56.4172 59.6219 54.3802 60.7505C52.3156 61.8516 49.8795 62.4022 47.0717 62.4022C44.2363 62.4022 41.8139 61.8516 39.8044 60.7505C37.7674 59.6219 36.2121 58.0115 35.1385 55.9195C34.0375 53.8274 33.4869 51.3086 33.4869 48.3632C33.4869 45.4178 34.0375 42.899 35.1385 40.8069C36.2121 38.7148 37.7674 37.1182 39.8044 36.0172Z" fill="url(#paint0_linear_2033_14601)"/>
<path d="M40.1157 5.18903L41.5566 7.75451L41.5358 7.76617L41.5149 7.77749L40.1157 5.18903ZM54.6915 5.18903L53.2923 7.77752L53.2801 7.77085L54.6915 5.18903ZM59.3987 9.9788L56.7949 11.3492V11.3492L59.3987 9.9788ZM59.3987 25.0913L62.0025 26.4618L62.0024 26.4618L59.3987 25.0913ZM54.6915 29.9224L56.1175 32.4962L56.0969 32.5076L56.0761 32.5186L54.6915 29.9224ZM40.1157 29.9224L38.7018 32.5028L38.6897 32.4962L40.1157 29.9224ZM35.4498 25.0913L38.0536 23.7209L38.0607 23.7344L38.0677 23.748L35.4498 25.0913ZM35.4498 9.9788L38.0677 11.3222L38.0607 11.3357L38.0536 11.3492L35.4498 9.9788ZM9.58468 5.18903L11.0256 7.7545L11.0048 7.76617L10.9838 7.77749L9.58468 5.18903ZM24.1604 5.18903L22.7612 7.77752L22.749 7.77085L24.1604 5.18903ZM28.8676 9.9788L31.4714 8.60837L31.4714 8.60838L28.8676 9.9788ZM28.8676 25.0913L31.4714 26.4617L31.4714 26.4618L28.8676 25.0913ZM24.1604 29.9224L25.5864 32.4962L25.5659 32.5076L25.5451 32.5186L24.1604 29.9224ZM9.58468 29.9224L8.17073 32.5028L8.15867 32.4962L9.58468 29.9224ZM4.91879 25.0913L7.52258 23.7209L7.52968 23.7344L7.53664 23.748L4.91879 25.0913ZM4.91879 9.9788L7.53664 11.3222L7.52968 11.3357L7.52258 11.3492L4.91879 9.9788ZM9.58471 35.7789L11.0256 38.3443L11.0048 38.356L10.9839 38.3673L9.58471 35.7789ZM4.91882 40.5686L7.53668 41.912L7.52972 41.9256L7.52262 41.9391L4.91882 40.5686ZM4.91882 55.6812L7.52262 54.3108L7.52972 54.3242L7.53668 54.3378L4.91882 55.6812ZM9.58471 60.5122L8.17076 63.0927L8.1587 63.086L9.58471 60.5122ZM24.1605 60.5122L25.5865 63.086L25.5659 63.0974L25.5451 63.1085L24.1605 60.5122ZM28.8676 55.6812L31.4714 57.0516L28.8676 55.6812ZM28.8676 40.5686L26.2638 41.9391L28.8676 40.5686ZM24.1605 35.7789L22.7613 38.3674L22.7491 38.3607L24.1605 35.7789ZM39.8044 36.0172L41.2453 38.5826L41.2246 38.5943L41.2036 38.6056L39.8044 36.0172ZM54.3802 36.0172L52.981 38.6056L52.9688 38.599L54.3802 36.0172ZM59.0874 55.9195L61.6912 57.2899L61.6912 57.2899L59.0874 55.9195ZM54.3802 60.7505L55.8062 63.3243L55.7856 63.3357L55.7649 63.3468L54.3802 60.7505ZM39.8044 60.7505L38.3905 63.331L38.3784 63.3243L39.8044 60.7505ZM35.1385 55.9195L37.7423 54.549L37.7494 54.5625L37.7564 54.5761L35.1385 55.9195ZM35.1385 40.8069L37.7564 42.1503L37.7494 42.1639L37.7423 42.1773L35.1385 40.8069ZM47.3829 6.43851C44.9372 6.43851 43.0356 6.92386 41.5566 7.75451L38.6748 2.62355C41.2149 1.19696 44.1581 0.553677 47.3829 0.553677V6.43851ZM53.2801 7.77085C51.7248 6.92063 49.7927 6.43851 47.3829 6.43851V0.553677C50.5888 0.553677 53.529 1.20019 56.1029 2.60721L53.2801 7.77085ZM56.7949 11.3492C55.9595 9.76212 54.8045 8.59491 53.2923 7.77749L56.0906 2.60057C58.6525 3.98534 60.6356 6.01131 62.0025 8.60838L56.7949 11.3492ZM58.1079 17.5351C58.1079 14.9519 57.6254 12.9273 56.7949 11.3492L62.0025 8.60838C63.3741 11.2144 63.9927 14.2274 63.9927 17.5351H58.1079ZM56.7949 23.7209C57.6254 22.1428 58.1079 20.1182 58.1079 17.5351H63.9927C63.9927 20.8427 63.3741 23.8557 62.0025 26.4618L56.7949 23.7209ZM53.2655 27.3486C54.793 26.5023 55.9564 25.3139 56.7949 23.7209L62.0024 26.4618C60.6387 29.0529 58.664 31.0853 56.1175 32.4962L53.2655 27.3486ZM47.3829 28.6316C49.8038 28.6316 51.7458 28.1587 53.3068 27.3261L56.0761 32.5186C53.508 33.8883 50.5776 34.5164 47.3829 34.5164V28.6316ZM41.5297 27.342C43.0144 28.1555 44.9261 28.6316 47.3829 28.6316V34.5164C44.1692 34.5164 41.236 33.8914 38.7018 32.5028L41.5297 27.342ZM38.0677 23.748C38.8776 25.3262 40.0205 26.5058 41.5417 27.3486L38.6897 32.4962C36.1369 31.0818 34.1692 29.0407 32.832 26.4347L38.0677 23.748ZM36.7406 17.5351C36.7406 20.1182 37.223 22.1428 38.0536 23.7209L32.846 26.4618C31.4744 23.8557 30.8558 20.8427 30.8558 17.5351H36.7406ZM38.0536 11.3492C37.223 12.9273 36.7406 14.9519 36.7406 17.5351H30.8558C30.8558 14.2274 31.4744 11.2144 32.846 8.60837L38.0536 11.3492ZM41.5149 7.77749C40.009 8.59146 38.8745 9.74988 38.0677 11.3222L32.832 8.63542C34.1723 6.02354 36.1483 3.98879 38.7165 2.60057L41.5149 7.77749ZM16.8519 6.43851C14.4061 6.43851 12.5045 6.92386 11.0256 7.7545L8.1438 2.62355C10.6838 1.19696 13.627 0.553677 16.8519 0.553677V6.43851ZM22.749 7.77085C21.1937 6.92062 19.2616 6.43851 16.8519 6.43851V0.553677C20.0578 0.553677 22.998 1.20019 25.5718 2.60721L22.749 7.77085ZM26.2638 11.3492C25.4285 9.76212 24.2735 8.59491 22.7613 7.77749L25.5596 2.60057C28.1214 3.98534 30.1045 6.01131 31.4714 8.60837L26.2638 11.3492ZM27.5768 17.5351C27.5768 14.9519 27.0944 12.9273 26.2638 11.3492L31.4714 8.60838C32.843 11.2144 33.4617 14.2274 33.4617 17.5351H27.5768ZM26.2638 23.7209C27.0944 22.1428 27.5768 20.1182 27.5768 17.5351H33.4617C33.4617 20.8428 32.843 23.8557 31.4714 26.4617L26.2638 23.7209ZM22.7344 27.3486C24.262 26.5023 25.4254 25.3139 26.2638 23.7209L31.4714 26.4618C30.1076 29.0529 28.1329 31.0853 25.5864 32.4962L22.7344 27.3486ZM16.8519 28.6316C19.2728 28.6316 21.2147 28.1587 22.7758 27.3261L25.5451 32.5186C22.977 33.8883 20.0466 34.5164 16.8519 34.5164V28.6316ZM10.9986 27.342C12.4834 28.1555 14.395 28.6316 16.8519 28.6316V34.5164C13.6381 34.5164 10.705 33.8914 8.17074 32.5028L10.9986 27.342ZM7.53664 23.748C8.34651 25.3262 9.48945 26.5058 11.0107 27.3486L8.15867 32.4962C5.60585 31.0818 3.6382 29.0407 2.30093 26.4347L7.53664 23.748ZM6.20956 17.5351C6.20956 20.1182 6.692 22.1428 7.52258 23.7209L2.31499 26.4618C0.943378 23.8557 0.324726 20.8427 0.324726 17.5351H6.20956ZM7.52258 11.3492C6.692 12.9273 6.20956 14.9519 6.20956 17.5351H0.324726C0.324726 14.2274 0.943378 11.2144 2.31499 8.60837L7.52258 11.3492ZM10.9838 7.77749C9.478 8.59146 8.34347 9.74988 7.53664 11.3222L2.30093 8.63542C3.64124 6.02354 5.6173 3.98879 8.18551 2.60057L10.9838 7.77749ZM8.14383 33.2134C10.6839 31.7868 13.6271 31.1435 16.8519 31.1435V37.0284C14.4062 37.0284 12.5046 37.5137 11.0256 38.3443L8.14383 33.2134ZM2.30097 39.2253C3.64127 36.6134 5.61734 34.5786 8.18555 33.1904L10.9839 38.3673C9.47804 39.1813 8.34351 40.3397 7.53668 41.912L2.30097 39.2253ZM0.324764 48.1249C0.324764 44.8172 0.943417 41.8043 2.31503 39.1982L7.52262 41.9391C6.69204 43.5172 6.2096 45.5417 6.2096 48.1249H0.324764ZM2.31503 57.0516C0.943417 54.4455 0.324764 51.4326 0.324764 48.1249H6.2096C6.2096 50.7081 6.69204 52.7326 7.52262 54.3108L2.31503 57.0516ZM8.1587 63.086C5.60589 61.6716 3.63823 59.6305 2.30097 57.0245L7.53668 54.3378C8.34655 55.916 9.48949 57.0956 11.0107 57.9385L8.1587 63.086ZM16.8519 65.1063C13.6382 65.1063 10.705 64.4813 8.17078 63.0927L10.9986 57.9318C12.4834 58.7454 14.3951 59.2215 16.8519 59.2215V65.1063ZM25.5451 63.1085C22.977 64.4781 20.0466 65.1063 16.8519 65.1063V59.2215C19.2728 59.2215 21.2148 58.7485 22.7758 57.916L25.5451 63.1085ZM31.4714 57.0516C30.1077 59.6428 28.133 61.6751 25.5865 63.086L22.7345 57.9385C24.262 57.0921 25.4254 55.9037 26.2638 54.3108L31.4714 57.0516ZM33.4617 48.1249C33.4617 51.4326 32.8431 54.4455 31.4714 57.0516L26.2638 54.3108C27.0944 52.7326 27.5769 50.7081 27.5769 48.1249H33.4617ZM31.4714 39.1982C32.8431 41.8043 33.4617 44.8172 33.4617 48.1249H27.5769C27.5769 45.5417 27.0944 43.5172 26.2638 41.9391L31.4714 39.1982ZM25.5596 33.1904C28.1215 34.5752 30.1046 36.6011 31.4714 39.1982L26.2638 41.9391C25.4285 40.352 24.2735 39.1848 22.7613 38.3673L25.5596 33.1904ZM16.8519 31.1435C20.0578 31.1435 22.998 31.79 25.5719 33.1971L22.7491 38.3607C21.1938 37.5105 19.2617 37.0284 16.8519 37.0284V31.1435ZM47.0717 37.2666C44.6259 37.2666 42.7243 37.752 41.2453 38.5826L38.3636 33.4517C40.9036 32.0251 43.8468 31.3818 47.0717 31.3818V37.2666ZM52.9688 38.599C51.4135 37.7487 49.4814 37.2666 47.0717 37.2666V31.3818C50.2775 31.3818 53.2178 32.0283 55.7916 33.4353L52.9688 38.599ZM56.4836 42.1773C55.6483 40.5902 54.4932 39.423 52.981 38.6056L55.7794 33.4287C58.3412 34.8135 60.3243 36.8394 61.6912 39.4365L56.4836 42.1773ZM57.7966 48.3632C57.7966 45.78 57.3142 43.7554 56.4836 42.1773L61.6912 39.4365C63.0628 42.0426 63.6814 45.0555 63.6814 48.3632H57.7966ZM56.4836 54.549C57.3142 52.9709 57.7966 50.9464 57.7966 48.3632H63.6814C63.6814 51.6709 63.0628 54.6838 61.6912 57.2899L56.4836 54.549ZM52.9542 58.1767C54.4817 57.3304 55.6452 56.142 56.4836 54.549L61.6912 57.2899C60.3274 59.8811 58.3527 61.9134 55.8062 63.3243L52.9542 58.1767ZM47.0717 59.4597C49.4926 59.4597 51.4345 58.9868 52.9955 58.1543L55.7649 63.3468C53.1968 64.7164 50.2664 65.3446 47.0717 65.3446V59.4597ZM41.2184 58.1701C42.7031 58.9836 44.6148 59.4597 47.0717 59.4597V65.3446C43.8579 65.3446 40.9248 64.7196 38.3905 63.3309L41.2184 58.1701ZM37.7564 54.5761C38.5663 56.1543 39.7092 57.3339 41.2305 58.1767L38.3784 63.3243C35.8256 61.9099 33.858 59.8688 32.5207 57.2628L37.7564 54.5761ZM36.4293 48.3632C36.4293 50.9464 36.9118 52.9709 37.7423 54.549L32.5348 57.2899C31.1631 54.6838 30.5445 51.6709 30.5445 48.3632H36.4293ZM37.7423 42.1773C36.9118 43.7554 36.4293 45.78 36.4293 48.3632H30.5445C30.5445 45.0555 31.1631 42.0426 32.5348 39.4365L37.7423 42.1773ZM41.2036 38.6056C39.6978 39.4196 38.5632 40.578 37.7564 42.1503L32.5207 39.4635C33.861 36.8517 35.8371 34.8169 38.4053 33.4287L41.2036 38.6056Z" fill="#004065" mask="url(#path-1-outside-1_2033_14601)"/>
<path d="M10.9397 13.0312L22.6848 23.0985M22.6848 13.0312L10.9397 23.0985" stroke="#004065" stroke-width="3.35574" stroke-linejoin="bevel"/>
<path d="M41.6917 43.6367L53.4368 53.7039M53.4368 43.6367L41.6917 53.7039" stroke="#004065" stroke-width="3.35574" stroke-linejoin="bevel"/>
<path fill-rule="evenodd" clip-rule="evenodd" d="M42.2233 13.4184C43.8379 11.8038 46.4558 11.8038 48.0704 13.4184L48.0827 13.4307C48.1437 13.4917 48.2426 13.4917 48.3035 13.4307C49.9182 11.8161 52.536 11.8161 54.1506 13.4307C55.7652 15.0453 55.7652 17.6632 54.1506 19.2778L49.6844 23.7439C48.8572 24.5711 47.516 24.5711 46.6887 23.7439L42.3428 19.398C42.341 19.3962 42.341 19.3932 42.3428 19.3914C42.3446 19.3896 42.3446 19.3867 42.3428 19.3849L42.2233 19.2654C40.6087 17.6508 40.6087 15.033 42.2233 13.4184Z" fill="#00507D"/>
<path fill-rule="evenodd" clip-rule="evenodd" d="M10.7079 44.8661C12.3596 43.2144 15.0376 43.2144 16.6893 44.8661L16.704 44.8808C16.7654 44.9422 16.865 44.9422 16.9264 44.8808C18.5782 43.229 21.2561 43.229 22.9079 44.8808C24.5596 46.5325 24.5596 49.2104 22.9079 50.8622L18.3391 55.4309C17.4928 56.2772 16.1208 56.2772 15.2745 55.4309L10.8296 50.986C10.8273 50.9837 10.8273 50.9799 10.8296 50.9776C10.8319 50.9753 10.8319 50.9715 10.8296 50.9692L10.7079 50.8475C9.05618 49.1958 9.05618 46.5178 10.7079 44.8661Z" fill="#00507D"/>
<defs>
<linearGradient id="paint0_linear_2033_14601" x1="68.7821" y1="32.9491" x2="-1.20288" y2="32.9491" gradientUnits="userSpaceOnUse">
<stop stop-color="#FF2CF7"/>
<stop offset="1" stop-color="#CCFF00"/>
</linearGradient>
</defs>
</svg>
