<svg width="24" height="24" viewBox="0 0 24 24" fill="none" xmlns="http://www.w3.org/2000/svg">
<path d="M9.97754 17.8222L4.83938 19.1484L3.51316 14.0103" stroke="#555555" stroke-width="1.55382" stroke-linecap="round" stroke-linejoin="round"/>
<path d="M5.47027 18.175C5.47027 18.175 9.49194 8.46179 16.1325 4.28459" stroke="#555555" stroke-width="1.55382" stroke-linecap="round" stroke-linejoin="round"/>
<path d="M13.6505 15.0544C12.9873 14.4046 12.3152 13.6257 12.3152 12.6064C12.3152 11.9571 12.5731 11.3344 13.0322 10.8753C13.4913 10.4162 14.114 10.1583 14.7633 10.1583C15.5467 10.1583 16.0986 10.3808 16.7663 11.0485C17.4339 10.3808 17.9858 10.1583 18.7692 10.1583C19.4185 10.1583 20.0412 10.4162 20.5003 10.8753C20.9594 11.3344 21.2173 11.9571 21.2173 12.6064C21.2173 13.6301 20.5496 14.409 19.882 15.0544L17.4529 17.4835C17.0737 17.8627 16.4588 17.8627 16.0796 17.4835L13.6505 15.0544Z" fill="#FF4D8B"/>
</svg>
