<svg width="25" height="24" viewBox="0 0 25 24" fill="none" xmlns="http://www.w3.org/2000/svg">
<path d="M14.4404 5.6949L19.5786 4.36869L20.9048 9.50685" stroke="#555555" stroke-width="1.55382" stroke-linecap="round" stroke-linejoin="round"/>
<path d="M18.9477 5.34209C18.9477 5.34209 14.926 15.0553 8.2855 19.2325" stroke="#555555" stroke-width="1.55382" stroke-linecap="round" stroke-linejoin="round"/>
<path d="M10.3534 12.1815C11.0166 11.5316 11.6887 10.7527 11.6887 9.73342C11.6887 9.08416 11.4308 8.46148 10.9717 8.00238C10.5126 7.54328 9.88989 7.28535 9.24062 7.28535C8.45724 7.28535 7.90531 7.50791 7.23766 8.17556C6.57 7.50791 6.01807 7.28535 5.23469 7.28535C4.58542 7.28535 3.96275 7.54328 3.50364 8.00238C3.04454 8.46148 2.78662 9.08416 2.78662 9.73342C2.78662 10.7572 3.45428 11.5361 4.12193 12.1815L6.55096 14.6105C6.93021 14.9898 7.5451 14.9898 7.92435 14.6105L10.3534 12.1815Z" fill="#FF4D8B"/>
</svg>
