<svg width="142" height="31" viewBox="0 0 142 31" fill="none" xmlns="http://www.w3.org/2000/svg">
<path fill-rule="evenodd" clip-rule="evenodd" d="M19.3939 0.891018C20.4515 0.297006 21.7265 0 23.2188 0C24.6966 0 25.9788 0.297006 27.0654 0.891018C28.1375 1.47054 28.9633 2.31085 29.5428 3.41195C30.1223 4.51304 30.4121 5.8387 30.4121 7.38893C30.4121 8.93915 30.1223 10.2648 29.5428 11.3659C28.9633 12.467 28.1375 13.3146 27.0654 13.9086C25.9788 14.4881 24.6966 14.7779 23.2188 14.7779C21.7265 14.7779 20.4515 14.4881 19.3939 13.9086C18.3218 13.3146 17.5032 12.467 16.9382 11.3659C16.3587 10.2648 16.0689 8.93915 16.0689 7.38893C16.0689 5.8387 16.3587 4.51304 16.9382 3.41195C17.5032 2.31085 18.3218 1.47054 19.3939 0.891018ZM3.32453 0.891018C4.38216 0.297006 5.65711 0 7.14939 0C8.62717 0 9.90936 0.297006 10.996 0.891018C12.0681 1.47054 12.8939 2.31085 13.4734 3.41195C14.053 4.51304 14.3427 5.8387 14.3427 7.38893C14.3427 8.93915 14.053 10.2648 13.4734 11.3659C12.8939 12.467 12.0681 13.3146 10.996 13.9086C9.90936 14.4881 8.62717 14.7779 7.14939 14.7779C5.65711 14.7779 4.38216 14.4881 3.32453 13.9086C2.25241 13.3146 1.43383 12.467 0.868797 11.3659C0.289274 10.2648 -0.000486374 8.93915 -0.000486374 7.38893C-0.000486374 5.8387 0.289274 4.51304 0.868797 3.41195C1.43383 2.31085 2.25241 1.47054 3.32453 0.891018ZM7.14939 16.1008C5.65711 16.1008 4.38216 16.3978 3.32453 16.9918C2.25241 17.5714 1.43383 18.4117 0.868797 19.5128C0.289274 20.6139 -0.000486374 21.9395 -0.000486374 23.4897C-0.000486374 25.04 0.289274 26.3656 0.868797 27.4667C1.43383 28.5678 2.25241 29.4154 3.32453 30.0094C4.38216 30.5889 5.65711 30.8787 7.14939 30.8787C8.62717 30.8787 9.90936 30.5889 10.996 30.0094C12.0681 29.4154 12.8939 28.5678 13.4734 27.4667C14.053 26.3656 14.3427 25.04 14.3427 23.4897C14.3427 21.9395 14.053 20.6139 13.4734 19.5128C12.8939 18.4117 12.0681 17.5714 10.996 16.9918C9.90936 16.3978 8.62717 16.1008 7.14939 16.1008ZM19.2302 17.1039C20.2878 16.5099 21.5628 16.2129 23.055 16.2129C24.5328 16.2129 25.815 16.5099 26.9016 17.1039C27.9737 17.6834 28.7996 18.5237 29.3791 19.6248C29.9586 20.7259 30.2484 22.0516 30.2484 23.6018C30.2484 25.152 29.9586 26.4777 29.3791 27.5788C28.7996 28.6799 27.9737 29.5274 26.9016 30.1214C25.815 30.701 24.5328 30.9907 23.055 30.9907C21.5628 30.9907 20.2878 30.701 19.2302 30.1214C18.1581 29.5274 17.3395 28.6799 16.7744 27.5788C16.1949 26.4777 15.9052 25.152 15.9052 23.6018C15.9052 22.0516 16.1949 20.7259 16.7744 19.6248C17.3395 18.5237 18.1581 17.6834 19.2302 17.1039Z" fill="url(#paint0_linear_3527_6517)"/>
<path d="M4.04299 5.02002L10.2246 10.3186M10.2246 5.02002L4.04299 10.3186" stroke="#1F1F1F" stroke-width="1.76618" stroke-linejoin="bevel"/>
<path d="M20.2246 21.1157L26.4062 26.4143M26.4062 21.1157L20.2246 26.4143" stroke="#1F1F1F" stroke-width="1.76618" stroke-linejoin="bevel"/>
<path fill-rule="evenodd" clip-rule="evenodd" d="M20.5051 5.21611C21.3549 4.36631 22.7327 4.36631 23.5825 5.2161L23.5853 5.21895C23.6185 5.25215 23.6723 5.25215 23.7055 5.21895C24.5553 4.36915 25.9331 4.36916 26.7829 5.21895C27.6327 6.06875 27.6327 7.44654 26.7829 8.29634L24.4323 10.6469C23.9969 11.0823 23.291 11.0823 22.8556 10.6469L20.5673 8.35861C20.5669 8.35821 20.5669 8.35756 20.5673 8.35717C20.5677 8.35677 20.5677 8.35612 20.5673 8.35573L20.5051 8.2935C19.6553 7.4437 19.6553 6.0659 20.5051 5.21611Z" fill="#1F1F1F"/>
<path fill-rule="evenodd" clip-rule="evenodd" d="M3.9215 21.767C4.79082 20.8977 6.20028 20.8977 7.06961 21.767C7.10323 21.8006 7.15776 21.8006 7.19139 21.767L7.19566 21.7627C8.06498 20.8934 9.47444 20.8934 10.3438 21.7627C11.2131 22.632 11.2131 24.0415 10.3438 24.9108L10.2796 24.9749C10.2791 24.9755 10.2791 24.9764 10.2796 24.977C10.2802 24.9776 10.2802 24.9785 10.2796 24.9791L7.93903 27.3197C7.49363 27.7651 6.7715 27.7651 6.32611 27.3197L3.9215 24.9151C3.05217 24.0458 3.05217 22.6363 3.9215 21.767Z" fill="#1F1F1F"/>
<path d="M48.6531 10.4017L43.2077 16.9186L43.0145 16.4619L40.2567 19.817L39.677 17.3753L45.2981 10.4017H48.6531ZM41.1526 10.4017V21.9951H38.1313V10.4017H41.1526ZM44.1914 14.2311L48.8639 21.9951H45.4386L41.9254 15.9174L44.1914 14.2311ZM52.8049 10.4017V21.9951H49.7836V10.4017H52.8049ZM59.3808 10.2261C60.4582 10.2261 61.4067 10.3959 62.2265 10.7355C63.0579 11.0634 63.7781 11.5494 64.3871 12.1934L62.9291 14.1432C62.4256 13.6163 61.881 13.224 61.2955 12.9663C60.7217 12.697 60.0659 12.5623 59.3281 12.5623C58.8949 12.5623 58.5435 12.6092 58.2742 12.7028C58.0049 12.7965 57.8116 12.9253 57.6945 13.0893C57.5774 13.2532 57.5189 13.4406 57.5189 13.6514C57.5189 13.8973 57.6301 14.1081 57.8526 14.2838C58.0868 14.4477 58.4616 14.5882 58.9768 14.7053L60.9266 15.1445C62.086 15.4138 62.935 15.8061 63.4736 16.3214C64.0123 16.8366 64.2817 17.5217 64.2817 18.3766C64.2817 19.1963 64.0709 19.8931 63.6493 20.4669C63.2277 21.029 62.6481 21.4564 61.9103 21.7492C61.1725 22.0302 60.3294 22.1708 59.3808 22.1708C58.6079 22.1708 57.8702 22.0888 57.1676 21.9249C56.4649 21.7492 55.8326 21.5033 55.2705 21.1871C54.7084 20.8709 54.2341 20.5079 53.8476 20.098L55.3056 18.078C55.5984 18.4176 55.9555 18.722 56.3771 18.9914C56.8104 19.249 57.2788 19.4539 57.7824 19.6062C58.2976 19.7584 58.8187 19.8345 59.3457 19.8345C59.7556 19.8345 60.0952 19.7935 60.3645 19.7116C60.6456 19.6296 60.8505 19.5066 60.9793 19.3427C61.1081 19.1787 61.1725 18.9855 61.1725 18.763C61.1725 18.5171 61.0847 18.3122 60.9091 18.1482C60.7334 17.9726 60.3996 17.8262 59.9078 17.7091L57.7648 17.2348C57.109 17.0826 56.5235 16.8835 56.0082 16.6376C55.5047 16.3799 55.1065 16.0403 54.8137 15.6188C54.521 15.1855 54.3746 14.6468 54.3746 14.0027C54.3746 13.2767 54.5737 12.6326 54.9718 12.0705C55.37 11.4967 55.9438 11.0458 56.6933 10.7179C57.4428 10.39 58.3386 10.2261 59.3808 10.2261ZM70.1755 10.2261C71.2529 10.2261 72.2014 10.3959 73.0212 10.7355C73.8526 11.0634 74.5728 11.5494 75.1818 12.1934L73.7238 14.1432C73.2202 13.6163 72.6757 13.224 72.0902 12.9663C71.5164 12.697 70.8606 12.5623 70.1228 12.5623C69.6895 12.5623 69.3382 12.6092 69.0689 12.7028C68.7995 12.7965 68.6063 12.9253 68.4892 13.0893C68.3721 13.2532 68.3136 13.4406 68.3136 13.6514C68.3136 13.8973 68.4248 14.1081 68.6473 14.2838C68.8815 14.4477 69.2563 14.5882 69.7715 14.7053L71.7213 15.1445C72.8806 15.4138 73.7297 15.8061 74.2683 16.3214C74.807 16.8366 75.0764 17.5217 75.0764 18.3766C75.0764 19.1963 74.8656 19.8931 74.444 20.4669C74.0224 21.029 73.4427 21.4564 72.705 21.7492C71.9672 22.0302 71.1241 22.1708 70.1755 22.1708C69.4026 22.1708 68.6649 22.0888 67.9622 21.9249C67.2596 21.7492 66.6272 21.5033 66.0651 21.1871C65.503 20.8709 65.0288 20.5079 64.6423 20.098L66.1003 18.078C66.393 18.4176 66.7502 18.722 67.1718 18.9914C67.6051 19.249 68.0735 19.4539 68.577 19.6062C69.0923 19.7584 69.6134 19.8345 70.1404 19.8345C70.5503 19.8345 70.8899 19.7935 71.1592 19.7116C71.4403 19.6296 71.6452 19.5066 71.774 19.3427C71.9028 19.1787 71.9672 18.9855 71.9672 18.763C71.9672 18.5171 71.8794 18.3122 71.7037 18.1482C71.5281 17.9726 71.1943 17.8262 70.7025 17.7091L68.5595 17.2348C67.9037 17.0826 67.3182 16.8835 66.8029 16.6376C66.2994 16.3799 65.9012 16.0403 65.6084 15.6188C65.3157 15.1855 65.1693 14.6468 65.1693 14.0027C65.1693 13.2767 65.3684 12.6326 65.7665 12.0705C66.1647 11.4967 66.7385 11.0458 67.488 10.7179C68.2374 10.39 69.1333 10.2261 70.1755 10.2261ZM84.9073 13.0366C85.8324 13.0366 86.6404 13.2181 87.3313 13.5811C88.034 13.9324 88.5785 14.4536 88.9649 15.1445C89.3631 15.8237 89.5622 16.6434 89.5622 17.6037C89.5622 18.5639 89.3631 19.3895 88.9649 20.0805C88.5785 20.7597 88.034 21.2808 87.3313 21.6438C86.6404 21.9951 85.8324 22.1708 84.9073 22.1708C84.0056 22.1708 83.2034 21.9951 82.5008 21.6438C81.7981 21.2808 81.2477 20.7597 80.8496 20.0805C80.4631 19.3895 80.2699 18.5639 80.2699 17.6037C80.2699 16.6434 80.4631 15.8237 80.8496 15.1445C81.2477 14.4536 81.7981 13.9324 82.5008 13.5811C83.2034 13.2181 84.0056 13.0366 84.9073 13.0366ZM84.9073 15.1621C84.5677 15.1621 84.2749 15.244 84.029 15.408C83.7831 15.5719 83.5957 15.8354 83.4669 16.1984C83.3381 16.5615 83.2737 17.0299 83.2737 17.6037C83.2737 18.1775 83.3381 18.6459 83.4669 19.0089C83.5957 19.3603 83.7831 19.6237 84.029 19.7994C84.2749 19.9633 84.5677 20.0453 84.9073 20.0453C85.2586 20.0453 85.5572 19.9633 85.8031 19.7994C86.049 19.6237 86.2364 19.3603 86.3652 19.0089C86.494 18.6459 86.5584 18.1775 86.5584 17.6037C86.5584 17.0299 86.494 16.5615 86.3652 16.1984C86.2364 15.8354 86.049 15.5719 85.8031 15.408C85.5572 15.244 85.2586 15.1621 84.9073 15.1621ZM90.7151 21.9951V13.2123H93.3499L93.4729 15.1094C93.6954 14.4536 94.0233 13.9442 94.4566 13.5811C94.9016 13.2181 95.4637 13.0366 96.1429 13.0366C96.3654 13.0366 96.5527 13.0542 96.705 13.0893C96.8689 13.1244 96.9977 13.1713 97.0914 13.2298L96.7928 15.689C96.6757 15.6422 96.5235 15.607 96.3361 15.5836C96.1604 15.5485 95.9438 15.5309 95.6862 15.5309C95.3349 15.5309 95.007 15.607 94.7025 15.7593C94.398 15.9115 94.1521 16.1399 93.9647 16.4443C93.7891 16.7371 93.7012 17.1118 93.7012 17.5686V21.9951H90.7151ZM101.135 21.9951L103.823 10.4017H108.794C109.988 10.4017 110.931 10.6945 111.622 11.28C112.324 11.8538 112.676 12.6619 112.676 13.7041C112.676 14.5473 112.477 15.2616 112.078 15.8471C111.692 16.4326 111.165 16.8893 110.498 17.2172C109.83 17.5334 109.075 17.7091 108.232 17.7442L107.564 17.9023H104.789L105.28 15.7593H107.582C108.038 15.7593 108.419 15.6832 108.723 15.5309C109.04 15.3787 109.28 15.1679 109.444 14.8986C109.608 14.6175 109.689 14.313 109.689 13.9851C109.689 13.5284 109.537 13.2005 109.233 13.0015C108.928 12.7907 108.536 12.6853 108.056 12.6853H106.264L104.104 21.9951H101.135ZM108.636 21.9951L106.738 16.9713L109.479 16.5497L111.692 21.9951H108.636ZM117.857 22.1708C116.698 22.1708 115.732 21.96 114.959 21.5384C114.186 21.1168 113.647 20.5079 113.343 19.7116C113.039 18.9153 113.015 17.9609 113.273 16.8484L114.783 10.4017H117.805L116.241 17.2699C116.124 17.8203 116.124 18.2829 116.241 18.6576C116.37 19.0324 116.593 19.3193 116.909 19.5184C117.237 19.7057 117.641 19.7994 118.121 19.7994C118.765 19.7994 119.269 19.6062 119.632 19.2197C119.995 18.8333 120.258 18.2653 120.422 17.5159L122.073 10.4017H125.077L123.408 17.6037C123.057 19.1026 122.436 20.2385 121.546 21.0114C120.656 21.7843 119.427 22.1708 117.857 22.1708ZM129.576 22.1532C128.709 22.1532 127.924 21.9541 127.222 21.556C126.531 21.1461 125.98 20.5664 125.571 19.817C125.161 19.0675 124.956 18.1716 124.956 17.1294C124.956 16.1926 125.096 15.3143 125.377 14.4946C125.658 13.6631 126.068 12.9253 126.607 12.2813C127.146 11.6372 127.807 11.1336 128.592 10.7706C129.388 10.4076 130.302 10.2261 131.332 10.2261C132.187 10.2261 132.954 10.3666 133.633 10.6477C134.324 10.917 134.892 11.321 135.337 11.8597C135.794 12.3984 136.081 13.06 136.198 13.8446L133.352 14.3892C133.27 13.8036 133.054 13.3586 132.702 13.0542C132.351 12.7497 131.871 12.5975 131.262 12.5975C130.77 12.5975 130.319 12.7087 129.909 12.9312C129.511 13.1537 129.166 13.464 128.873 13.8622C128.592 14.2603 128.375 14.7229 128.223 15.2499C128.071 15.7651 127.995 16.3155 127.995 16.9011C127.995 17.51 128.088 18.037 128.276 18.482C128.463 18.927 128.744 19.2724 129.119 19.5184C129.494 19.7526 129.962 19.8697 130.524 19.8697C130.969 19.8697 131.356 19.7994 131.683 19.6589C132.011 19.5184 132.281 19.3251 132.491 19.0792C132.702 18.8216 132.86 18.5288 132.966 18.2009L133.106 17.8145H130.331L130.788 15.812H135.952L134.406 21.9951H132.404L132.983 19.2724L133.247 19.5535C133.036 20.1156 132.767 20.5899 132.439 20.9763C132.111 21.3628 131.713 21.6555 131.244 21.8546C130.776 22.0537 130.22 22.1532 129.576 22.1532ZM137.688 22.1356C137.196 22.1356 136.798 22.0244 136.494 21.8019C136.201 21.5677 136.055 21.2339 136.055 20.8006C136.055 20.2503 136.218 19.8111 136.546 19.4832C136.874 19.1436 137.319 18.9738 137.881 18.9738C138.373 18.9738 138.766 19.0909 139.058 19.3251C139.363 19.5593 139.515 19.8931 139.515 20.3264C139.515 20.8768 139.351 21.3159 139.023 21.6438C138.707 21.9717 138.262 22.1356 137.688 22.1356Z" fill="#004065"/>
<defs>
<linearGradient id="paint0_linear_3527_6517" x1="34.4816" y1="15.4953" x2="-2.35318" y2="15.4953" gradientUnits="userSpaceOnUse">
<stop stop-color="#FF56F8"/>
<stop offset="1" stop-color="#B6E300"/>
</linearGradient>
</defs>
</svg>
