<svg width="121" height="32" viewBox="0 0 121 32" fill="none" xmlns="http://www.w3.org/2000/svg">
<path fill-rule="evenodd" clip-rule="evenodd" d="M19.8944 1.5043C20.952 0.910287 22.227 0.613281 23.7193 0.613281C25.197 0.613281 26.4792 0.910287 27.5658 1.5043C28.638 2.08382 29.4638 2.92413 30.0433 4.02523C30.6228 5.12632 30.9126 6.45198 30.9126 8.00221C30.9126 9.55243 30.6228 10.8781 30.0433 11.9792C29.4638 13.0803 28.638 13.9278 27.5658 14.5218C26.4792 15.1014 25.197 15.3911 23.7193 15.3911C22.227 15.3911 20.952 15.1014 19.8944 14.5218C18.8223 13.9278 18.0037 13.0803 17.4387 11.9792C16.8592 10.8781 16.5694 9.55243 16.5694 8.00221C16.5694 6.45198 16.8592 5.12632 17.4387 4.02523C18.0037 2.92413 18.8223 2.08382 19.8944 1.5043ZM3.82502 1.5043C4.88265 0.910287 6.1576 0.613281 7.64987 0.613281C9.12766 0.613281 10.4099 0.910287 11.4965 1.5043C12.5686 2.08382 13.3944 2.92413 13.9739 4.02523C14.5534 5.12632 14.8432 6.45198 14.8432 8.00221C14.8432 9.55243 14.5534 10.8781 13.9739 11.9792C13.3944 13.0803 12.5686 13.9278 11.4965 14.5218C10.4099 15.1014 9.12766 15.3911 7.64987 15.3911C6.1576 15.3911 4.88265 15.1014 3.82502 14.5218C2.7529 13.9278 1.93432 13.0803 1.36929 11.9792C0.789762 10.8781 0.500002 9.55243 0.500002 8.00221C0.500002 6.45198 0.789762 5.12632 1.36929 4.02523C1.93432 2.92413 2.7529 2.08382 3.82502 1.5043ZM7.64987 16.7141C6.1576 16.7141 4.88265 17.0111 3.82502 17.6051C2.7529 18.1846 1.93432 19.0249 1.36929 20.126C0.789762 21.2271 0.500002 22.5528 0.500002 24.103C0.500002 25.6532 0.789762 26.9789 1.36929 28.08C1.93432 29.1811 2.7529 30.0286 3.82502 30.6227C4.88265 31.2022 6.1576 31.4919 7.64987 31.4919C9.12766 31.4919 10.4099 31.2022 11.4965 30.6227C12.5686 30.0286 13.3944 29.1811 13.9739 28.08C14.5534 26.9789 14.8432 25.6532 14.8432 24.103C14.8432 22.5528 14.5534 21.2271 13.9739 20.126C13.3944 19.0249 12.5686 18.1846 11.4965 17.6051C10.4099 17.0111 9.12766 16.7141 7.64987 16.7141ZM19.7307 17.7172C20.7883 17.1232 22.0632 16.8262 23.5555 16.8262C25.0333 16.8262 26.3155 17.1232 27.4021 17.7172C28.4742 18.2967 29.3 19.137 29.8796 20.2381C30.4591 21.3392 30.7489 22.6649 30.7489 24.2151C30.7489 25.7653 30.4591 27.091 29.8796 28.1921C29.3 29.2932 28.4742 30.1407 27.4021 30.7347C26.3155 31.3142 25.0333 31.604 23.5555 31.604C22.0632 31.604 20.7883 31.3142 19.7307 30.7347C18.6585 30.1407 17.84 29.2932 17.2749 28.1921C16.6954 27.091 16.4056 25.7653 16.4056 24.2151C16.4056 22.6649 16.6954 21.3392 17.2749 20.2381C17.84 19.137 18.6585 18.2967 19.7307 17.7172Z" fill="url(#paint0_linear_2303_51356)"/>
<path d="M4.5425 5.63306L10.7241 10.9316M10.7241 5.63306L4.5425 10.9316" stroke="#1F1F1F" stroke-width="1.76618" stroke-linejoin="bevel"/>
<path d="M20.7251 21.7289L26.9067 27.0274M26.9067 21.7289L20.7251 27.0274" stroke="#1F1F1F" stroke-width="1.76618" stroke-linejoin="bevel"/>
<path fill-rule="evenodd" clip-rule="evenodd" d="M21.0065 5.82951C21.8563 4.97971 23.2341 4.97971 24.0839 5.82951L24.0868 5.83236C24.12 5.86555 24.1738 5.86555 24.207 5.83236C25.0568 4.98256 26.4346 4.98256 27.2844 5.83236C28.1342 6.68215 28.1342 8.05995 27.2844 8.90974L24.9338 11.2603C24.4984 11.6957 23.7925 11.6957 23.3571 11.2603L21.0688 8.97201C21.0684 8.97161 21.0684 8.97097 21.0688 8.97057C21.0692 8.97017 21.0692 8.96953 21.0688 8.96913L21.0065 8.9069C20.1568 8.0571 20.1568 6.67931 21.0065 5.82951Z" fill="#1F1F1F"/>
<path fill-rule="evenodd" clip-rule="evenodd" d="M4.42199 22.3803C5.29131 21.5109 6.70077 21.5109 7.57009 22.3803C7.60372 22.4139 7.65825 22.4139 7.69187 22.3803L7.69614 22.376C8.56547 21.5067 9.97493 21.5067 10.8443 22.376C11.7136 23.2453 11.7136 24.6548 10.8443 25.5241L10.7801 25.5882C10.7796 25.5888 10.7796 25.5897 10.7801 25.5903C10.7807 25.5909 10.7807 25.5918 10.7801 25.5924L8.43951 27.933C7.99412 28.3784 7.27199 28.3784 6.8266 27.933L4.42199 25.5284C3.55266 24.659 3.55266 23.2496 4.42199 22.3803Z" fill="#1F1F1F"/>
<path d="M45.7211 8.36588L43.5266 15.0224L45.9306 23.1086H41.9694L40.4214 16.789V23.1086H36.5877V8.36588H40.4214V14.0936L42.1242 8.36588H45.7211ZM50.0651 8.36588V23.1086H46.2314V8.36588H50.0651ZM59.3537 12.8279H55.7932V11.7351C55.7932 11.2252 55.7477 10.9004 55.6566 10.7608C55.5655 10.6212 55.4138 10.5513 55.2013 10.5513C54.9706 10.5513 54.7946 10.6454 54.6732 10.8336C54.5578 11.0218 54.5001 11.3071 54.5001 11.6896C54.5001 12.1813 54.5669 12.5516 54.7005 12.8005C54.828 13.0494 55.1892 13.3499 55.7841 13.702C57.49 14.7159 58.5645 15.5476 59.0077 16.1971C59.4508 16.8467 59.6724 17.8939 59.6724 19.3387C59.6724 20.389 59.5479 21.163 59.299 21.6608C59.0562 22.1586 58.5827 22.5775 57.8785 22.9174C57.1743 23.2513 56.3547 23.4182 55.4199 23.4182C54.3939 23.4182 53.5167 23.224 52.7882 22.8355C52.0658 22.4469 51.5923 21.9522 51.3676 21.3512C51.143 20.7502 51.0307 19.8972 51.0307 18.7924V17.8271H54.5912V19.621C54.5912 20.1734 54.6398 20.5286 54.7369 20.6864C54.8401 20.8443 55.0192 20.9232 55.2742 20.9232C55.5291 20.9232 55.7173 20.823 55.8387 20.6227C55.9662 20.4223 56.03 20.1249 56.03 19.7303C56.03 18.8622 55.9116 18.2946 55.6748 18.0274C55.432 17.7603 54.834 17.3141 53.8809 16.6888C52.9278 16.0575 52.2965 15.5992 51.9869 15.3138C51.6772 15.0285 51.4192 14.6339 51.2128 14.13C51.0125 13.6262 50.9123 12.9827 50.9123 12.1995C50.9123 11.0704 51.055 10.2448 51.3403 9.72269C51.6317 9.2006 52.0992 8.79387 52.7427 8.50247C53.3862 8.20501 54.1632 8.05627 55.0738 8.05627C56.0694 8.05627 56.9163 8.21715 57.6144 8.5389C58.3186 8.86064 58.783 9.26738 59.0077 9.75911C59.2383 10.2448 59.3537 11.0734 59.3537 12.2451V12.8279ZM68.6332 12.8279H65.0727V11.7351C65.0727 11.2252 65.0271 10.9004 64.9361 10.7608C64.845 10.6212 64.6933 10.5513 64.4808 10.5513C64.2501 10.5513 64.074 10.6454 63.9526 10.8336C63.8373 11.0218 63.7796 11.3071 63.7796 11.6896C63.7796 12.1813 63.8464 12.5516 63.9799 12.8005C64.1074 13.0494 64.4686 13.3499 65.0636 13.702C66.7694 14.7159 67.844 15.5476 68.2871 16.1971C68.7303 16.8467 68.9519 17.8939 68.9519 19.3387C68.9519 20.389 68.8274 21.163 68.5785 21.6608C68.3357 22.1586 67.8622 22.5775 67.158 22.9174C66.4538 23.2513 65.6342 23.4182 64.6993 23.4182C63.6734 23.4182 62.7961 23.224 62.0677 22.8355C61.3452 22.4469 60.8717 21.9522 60.6471 21.3512C60.4225 20.7502 60.3102 19.8972 60.3102 18.7924V17.8271H63.8707V19.621C63.8707 20.1734 63.9192 20.5286 64.0164 20.6864C64.1196 20.8443 64.2987 20.9232 64.5536 20.9232C64.8086 20.9232 64.9968 20.823 65.1182 20.6227C65.2457 20.4223 65.3094 20.1249 65.3094 19.7303C65.3094 18.8622 65.1911 18.2946 64.9543 18.0274C64.7115 17.7603 64.1135 17.3141 63.1604 16.6888C62.2073 16.0575 61.5759 15.5992 61.2663 15.3138C60.9567 15.0285 60.6987 14.6339 60.4923 14.13C60.292 13.6262 60.1918 12.9827 60.1918 12.1995C60.1918 11.0704 60.3345 10.2448 60.6198 9.72269C60.9112 9.2006 61.3786 8.79387 62.0221 8.50247C62.6656 8.20501 63.4427 8.05627 64.3533 8.05627C65.3489 8.05627 66.1958 8.21715 66.8939 8.5389C67.5981 8.86064 68.0625 9.26738 68.2871 9.75911C68.5178 10.2448 68.6332 11.0734 68.6332 12.2451V12.8279ZM80.9271 15.2683V18.2278C80.9271 19.3144 80.8725 20.1127 80.7632 20.6227C80.6539 21.1265 80.4202 21.6001 80.062 22.0432C79.7039 22.4803 79.2425 22.8051 78.6779 23.0176C78.1194 23.224 77.4759 23.3272 76.7474 23.3272C75.9339 23.3272 75.2449 23.2392 74.6803 23.0631C74.1157 22.881 73.6756 22.6108 73.3599 22.2527C73.0503 21.8884 72.8288 21.4513 72.6952 20.9414C72.5616 20.4254 72.4949 19.6544 72.4949 18.6284V15.5324C72.4949 14.4093 72.6163 13.5321 72.8591 12.9007C73.1019 12.2694 73.539 11.7625 74.1704 11.38C74.8017 10.9975 75.6091 10.8063 76.5926 10.8063C77.4182 10.8063 78.1255 10.9308 78.7143 11.1797C79.3093 11.4225 79.7676 11.7412 80.0893 12.1358C80.4111 12.5304 80.6296 12.9371 80.745 13.356C80.8664 13.7749 80.9271 14.4123 80.9271 15.2683ZM77.2482 14.3577C77.2482 13.7385 77.2149 13.3499 77.1481 13.1921C77.0813 13.0282 76.9386 12.9462 76.7201 12.9462C76.5015 12.9462 76.3558 13.0282 76.283 13.1921C76.2101 13.3499 76.1737 13.7385 76.1737 14.3577V19.8122C76.1737 20.3829 76.2101 20.7562 76.283 20.9323C76.3558 21.1023 76.4985 21.1873 76.711 21.1873C76.9295 21.1873 77.0722 21.1083 77.139 20.9505C77.2118 20.7927 77.2482 20.4527 77.2482 19.9306V14.3577ZM85.4532 11.0249L85.3075 12.6093C85.8417 11.4741 86.6157 10.8731 87.6296 10.8063V15.0589C86.9557 15.0589 86.4609 15.1499 86.1453 15.332C85.8296 15.5142 85.6353 15.7691 85.5625 16.097C85.4896 16.4187 85.4532 17.1654 85.4532 18.3371V23.1086H81.7743V11.0249H85.4532ZM91.1179 8.36588H93.8315C95.6406 8.36588 96.8639 8.43569 97.5013 8.57532C98.1448 8.71495 98.6669 9.07312 99.0675 9.64984C99.4743 10.2205 99.6776 11.1341 99.6776 12.3908C99.6776 13.5381 99.535 14.3091 99.2497 14.7037C98.9643 15.0983 98.4028 15.3351 97.565 15.414C98.3239 15.6022 98.8338 15.8541 99.0949 16.1698C99.3559 16.4855 99.5168 16.7769 99.5775 17.044C99.6443 17.305 99.6776 18.0305 99.6776 19.2203V23.1086H96.1172V18.2096C96.1172 17.4204 96.0534 16.9317 95.9259 16.7435C95.8045 16.5553 95.4797 16.4612 94.9516 16.4612V23.1086H91.1179V8.36588ZM94.9516 10.8883V14.1665C95.3826 14.1665 95.6831 14.1088 95.8531 13.9934C96.0291 13.872 96.1172 13.4865 96.1172 12.837V12.0265C96.1172 11.5591 96.0322 11.2525 95.8622 11.1068C95.6983 10.9611 95.3947 10.8883 94.9516 10.8883ZM109.513 8.36588V18.2187C109.513 19.3357 109.476 20.1218 109.403 20.5771C109.33 21.0264 109.115 21.4908 108.757 21.9704C108.399 22.4439 107.925 22.8051 107.336 23.054C106.753 23.2968 106.064 23.4182 105.269 23.4182C104.389 23.4182 103.612 23.2726 102.938 22.9812C102.264 22.6898 101.76 22.3103 101.426 21.8429C101.092 21.3754 100.895 20.8837 100.834 20.3677C100.774 19.8456 100.743 18.7529 100.743 17.0895V8.36588H104.577V19.4207C104.577 20.0642 104.61 20.477 104.677 20.6591C104.75 20.8352 104.893 20.9232 105.105 20.9232C105.348 20.9232 105.503 20.826 105.57 20.6318C105.642 20.4315 105.679 19.964 105.679 19.2294V8.36588H109.513ZM119.42 13.7931H115.587V12.4545C115.587 11.6107 115.55 11.0825 115.477 10.8701C115.405 10.6576 115.232 10.5513 114.958 10.5513C114.722 10.5513 114.561 10.6424 114.476 10.8245C114.391 11.0066 114.348 11.4741 114.348 12.2269V19.3023C114.348 19.964 114.391 20.4011 114.476 20.6136C114.561 20.82 114.731 20.9232 114.986 20.9232C115.265 20.9232 115.453 20.8048 115.55 20.568C115.653 20.3313 115.705 19.8699 115.705 19.1839V17.4355H114.931V15.1954H119.42V23.1086H117.007L116.652 22.0523C116.391 22.5076 116.06 22.8506 115.66 23.0813C115.265 23.3059 114.798 23.4182 114.257 23.4182C113.614 23.4182 113.01 23.2634 112.445 22.9538C111.887 22.6382 111.462 22.2496 111.17 21.7883C110.879 21.3269 110.697 20.8443 110.624 20.3404C110.551 19.8304 110.515 19.0686 110.515 18.0548V13.6747C110.515 12.2663 110.591 11.2434 110.742 10.606C110.894 9.96855 111.328 9.38576 112.044 8.85761C112.767 8.32338 113.699 8.05627 114.84 8.05627C115.963 8.05627 116.895 8.28696 117.636 8.74834C118.376 9.20971 118.859 9.75911 119.083 10.3965C119.308 11.0279 119.42 11.9476 119.42 13.1557V13.7931Z" fill="black"/>
<defs>
<linearGradient id="paint0_linear_2303_51356" x1="34.982" y1="16.1086" x2="-1.85269" y2="16.1086" gradientUnits="userSpaceOnUse">
<stop stop-color="#FF56F8"/>
<stop offset="1" stop-color="#B6E300"/>
</linearGradient>
</defs>
</svg>
