<svg width="117" height="30" viewBox="0 0 117 30" fill="none" xmlns="http://www.w3.org/2000/svg">
<path fill-rule="evenodd" clip-rule="evenodd" d="M19.1238 0.83689C20.1172 0.278964 21.3147 0 22.7163 0C24.1043 0 25.3086 0.278964 26.3292 0.83689C27.3362 1.38121 28.1119 2.17047 28.6562 3.20468C29.2005 4.23888 29.4727 5.48401 29.4727 6.94007C29.4727 8.39612 29.2005 9.64125 28.6562 10.6755C28.1119 11.7097 27.3362 12.5057 26.3292 13.0637C25.3086 13.608 24.1043 13.8801 22.7163 13.8801C21.3147 13.8801 20.1172 13.608 19.1238 13.0637C18.1168 12.5057 17.348 11.7097 16.8172 10.6755C16.2729 9.64125 16.0008 8.39612 16.0008 6.94007C16.0008 5.48401 16.2729 4.23888 16.8172 3.20468C17.348 2.17047 18.1168 1.38121 19.1238 0.83689ZM4.02897 0.83689C5.02235 0.278964 6.21985 0 7.62148 0C9.00949 0 10.2138 0.278964 11.2344 0.83689C12.2414 1.38121 13.017 2.17047 13.5614 3.20468C14.1057 4.23888 14.3778 5.48401 14.3778 6.94007C14.3778 8.39612 14.1057 9.64125 13.5614 10.6755C13.017 11.7097 12.2414 12.5057 11.2344 13.0637C10.2138 13.608 9.00949 13.8801 7.62148 13.8801C6.21985 13.8801 5.02235 13.608 4.02897 13.0637C3.02198 12.5057 2.25313 11.7097 1.72242 10.6755C1.1781 9.64125 0.905941 8.39612 0.905941 6.94007C0.905941 5.48401 1.1781 4.23888 1.72242 3.20468C2.25313 2.17047 3.02198 1.38121 4.02897 0.83689ZM7.62148 15.1225C6.21985 15.1225 5.02235 15.4015 4.02897 15.9594C3.02198 16.5037 2.25313 17.293 1.72242 18.3272C1.1781 19.3614 0.905941 20.6065 0.905941 22.0626C0.905941 23.5186 1.1781 24.7638 1.72242 25.798C2.25313 26.8322 3.02198 27.6282 4.02897 28.1862C5.02235 28.7305 6.21985 29.0026 7.62148 29.0026C9.00949 29.0026 10.2138 28.7305 11.2344 28.1862C12.2414 27.6282 13.017 26.8322 13.5614 25.798C14.1057 24.7638 14.3778 23.5186 14.3778 22.0626C14.3778 20.6065 14.1057 19.3614 13.5614 18.3272C13.017 17.293 12.2414 16.5037 11.2344 15.9594C10.2138 15.4015 9.00949 15.1225 7.62148 15.1225ZM18.9703 16.0648C19.9636 15.5069 21.1611 15.228 22.5628 15.228C23.9508 15.228 25.1551 15.5069 26.1757 16.0648C27.1827 16.6092 27.9583 17.3984 28.5026 18.4326C29.047 19.4668 29.3191 20.712 29.3191 22.168C29.3191 23.6241 29.047 24.8692 28.5026 25.9034C27.9583 26.9376 27.1827 27.7337 26.1757 28.2916C25.1551 28.8359 23.9508 29.1081 22.5628 29.1081C21.1611 29.1081 19.9636 28.8359 18.9703 28.2916C17.9633 27.7337 17.1944 26.9376 16.6637 25.9034C16.1194 24.8692 15.8472 23.6241 15.8472 22.168C15.8472 20.712 16.1194 19.4668 16.6637 18.4326C17.1944 17.3984 17.9633 16.6092 18.9703 16.0648Z" fill="url(#paint0_linear_3600_6645)"/>
<path d="M4.70562 4.71533L10.5117 9.69199M10.5117 4.71533L4.70562 9.69199" stroke="#1F1F1F" stroke-width="1.65889" stroke-linejoin="bevel"/>
<path d="M19.9009 19.834L25.707 24.8106M25.707 19.834L19.9009 24.8106" stroke="#1F1F1F" stroke-width="1.65889" stroke-linejoin="bevel"/>
<path fill-rule="evenodd" clip-rule="evenodd" d="M20.1694 4.89917C20.9676 4.101 22.2617 4.101 23.0599 4.89917L23.0628 4.90205C23.0944 4.9337 23.1457 4.9337 23.1774 4.90205C23.9755 4.10387 25.2696 4.10387 26.0678 4.90205C26.866 5.70022 26.866 6.99432 26.0678 7.79249L23.86 10.0003C23.4511 10.4092 22.7881 10.4092 22.3791 10.0003L20.2294 7.85055C20.2292 7.85041 20.2292 7.85019 20.2294 7.85005C20.2295 7.84992 20.2295 7.84969 20.2294 7.84956L20.1694 7.78962C19.3713 6.99144 19.3713 5.69735 20.1694 4.89917Z" fill="#1F1F1F"/>
<path fill-rule="evenodd" clip-rule="evenodd" d="M4.58733 20.4449C5.40385 19.6284 6.72768 19.6284 7.5442 20.4449C7.57595 20.4766 7.62742 20.4766 7.65917 20.4449L7.66295 20.4411C8.47947 19.6246 9.8033 19.6246 10.6198 20.4411C11.4363 21.2576 11.4363 22.5815 10.6198 23.398L10.5594 23.4584C10.5589 23.4589 10.5589 23.4596 10.5594 23.4601C10.5598 23.4605 10.5598 23.4613 10.5594 23.4617L8.3608 25.6603C7.94247 26.0786 7.26421 26.0786 6.84587 25.6603L4.58733 23.4018C3.77082 22.5852 3.77082 21.2614 4.58733 20.4449Z" fill="#1F1F1F"/>
<path d="M43.595 6.7905C45.1296 6.7905 46.4807 7.03236 47.6483 7.51608C48.8325 7.98312 49.8584 8.67534 50.7257 9.59275L48.6491 12.37C47.9318 11.6194 47.1562 11.0606 46.3222 10.6936C45.5049 10.31 44.5708 10.1182 43.5199 10.1182C42.9028 10.1182 42.4024 10.1849 42.0187 10.3183C41.6351 10.4518 41.3599 10.6353 41.1931 10.8688C41.0263 11.1023 40.9429 11.3692 40.9429 11.6694C40.9429 12.0197 41.1013 12.3199 41.4183 12.5701C41.7519 12.8037 42.2856 13.0038 43.0195 13.1706L45.7968 13.7961C47.4481 14.1798 48.6574 14.7385 49.4247 15.4725C50.192 16.2064 50.5756 17.1822 50.5756 18.3998C50.5756 19.5674 50.2754 20.5599 49.6749 21.3772C49.0744 22.1779 48.2487 22.7867 47.1979 23.2037C46.1471 23.604 44.9461 23.8042 43.595 23.8042C42.4941 23.8042 41.4433 23.6874 40.4425 23.4539C39.4417 23.2037 38.5409 22.8534 37.7403 22.403C36.9397 21.9527 36.2641 21.4356 35.7137 20.8518L37.7903 17.9745C38.2073 18.4582 38.7161 18.8919 39.3166 19.2755C39.9337 19.6425 40.6009 19.9344 41.3182 20.1512C42.0521 20.3681 42.7944 20.4765 43.545 20.4765C44.1288 20.4765 44.6125 20.4181 44.9961 20.3013C45.3964 20.1846 45.6883 20.0094 45.8718 19.7759C46.0553 19.5424 46.1471 19.2672 46.1471 18.9503C46.1471 18.6 46.022 18.3081 45.7718 18.0746C45.5215 17.8244 45.0462 17.6159 44.3456 17.4491L41.2932 16.7735C40.3591 16.5567 39.5251 16.2731 38.7911 15.9228C38.0739 15.5559 37.5068 15.0721 37.0898 14.4717C36.6728 13.8545 36.4643 13.0872 36.4643 12.1698C36.4643 11.1357 36.7478 10.2182 37.315 9.41761C37.8821 8.60028 38.6994 7.9581 39.7669 7.49106C40.8345 7.02402 42.1105 6.7905 43.595 6.7905ZM68.6034 11.0439H73.0569L69.2789 23.554H64.1748L61.898 15.8728L59.6962 23.554H54.6171L50.8141 11.0439H55.2927L57.3944 20.2763L59.8463 11.0439H64.0497L66.4767 20.2763L68.6034 11.0439ZM76.1192 9.59275C75.2518 9.59275 74.618 9.43429 74.2176 9.11737C73.834 8.78377 73.6422 8.26668 73.6422 7.56612C73.6422 6.84888 73.834 6.3318 74.2176 6.01488C74.618 5.68127 75.2518 5.51447 76.1192 5.51447C76.9698 5.51447 77.5953 5.68127 77.9957 6.01488C78.396 6.3318 78.5961 6.84888 78.5961 7.56612C78.5961 8.26668 78.396 8.78377 77.9957 9.11737C77.5953 9.43429 76.9698 9.59275 76.1192 9.59275ZM78.2459 11.0439V23.554H73.9924V11.0439H78.2459ZM86.3528 5.38937C87.0366 5.38937 87.6371 5.46443 88.1542 5.61455C88.6713 5.74799 89.0549 5.90645 89.3051 6.08994L88.8798 8.74206C88.6963 8.6253 88.4878 8.53356 88.2543 8.46684C88.0208 8.40012 87.7289 8.36676 87.3786 8.36676C86.7948 8.36676 86.3111 8.5002 85.9274 8.76708C85.5605 9.03397 85.377 9.50101 85.377 10.1682V11.7945L85.6272 12.4951V23.554H81.3738V9.89299C81.3738 9.09235 81.4989 8.40846 81.7491 7.84134C82.0159 7.27422 82.3829 6.80718 82.85 6.44022C83.317 6.07326 83.8508 5.80637 84.4512 5.63957C85.0517 5.47277 85.6856 5.38937 86.3528 5.38937ZM89.18 11.0439V14.0713H79.3722V11.0439H89.18ZM96.1395 23.8042C94.7551 23.8042 93.5541 23.5456 92.5366 23.0285C91.5358 22.5115 90.7602 21.7692 90.2098 20.8017C89.6593 19.8343 89.3841 18.6667 89.3841 17.2989C89.3841 15.9312 89.6593 14.7636 90.2098 13.7961C90.7602 12.8287 91.5275 12.0864 92.5116 11.5693C93.5124 11.0523 94.655 10.7937 95.9394 10.7937C97.2571 10.7937 98.3747 11.0523 99.2921 11.5693C100.226 12.0697 100.935 12.7703 101.419 13.671C101.902 14.5551 102.144 15.5725 102.144 16.7235C102.144 17.0237 102.136 17.324 102.119 17.6242C102.103 17.9244 102.078 18.1746 102.044 18.3748H92.1363V16.098H100.168L98.1411 16.8736C98.1411 15.8728 97.9577 15.1055 97.5907 14.5717C97.2404 14.038 96.69 13.7711 95.9394 13.7711C95.4056 13.7711 94.9469 13.8962 94.5633 14.1464C94.1963 14.3966 93.9127 14.7886 93.7126 15.3223C93.5291 15.8561 93.4374 16.54 93.4374 17.374C93.4374 18.1913 93.5458 18.8585 93.7626 19.3756C93.9795 19.876 94.288 20.243 94.6884 20.4765C95.0887 20.6933 95.5724 20.8017 96.1395 20.8017C96.7734 20.8017 97.2738 20.6766 97.6407 20.4264C98.0244 20.1762 98.3079 19.826 98.4914 19.3756L101.894 20.5015C101.661 21.2187 101.252 21.8276 100.668 22.328C100.101 22.8117 99.4172 23.1787 98.6165 23.4289C97.8326 23.6791 97.0069 23.8042 96.1395 23.8042ZM115.918 11.0439L111.365 23.554C110.898 24.8717 110.389 25.9225 109.839 26.7065C109.288 27.4904 108.638 28.0576 107.887 28.4079C107.136 28.7581 106.236 28.9333 105.185 28.9333C104.484 28.9333 103.842 28.8582 103.258 28.7081C102.675 28.558 102.166 28.3495 101.732 28.0826L102.583 25.2053C102.883 25.4221 103.2 25.5722 103.534 25.6556C103.867 25.7557 104.292 25.8058 104.81 25.8058C105.293 25.8058 105.685 25.7224 105.986 25.5556C106.302 25.3888 106.553 25.0718 106.736 24.6048L107.061 23.8292L105.61 20.4264L101.857 11.0439H106.536L108.463 18.1746L109.063 20.8268L109.764 18.0746L111.69 11.0439H115.918Z" fill="#004065"/>
<defs>
<linearGradient id="paint0_linear_3600_6645" x1="33.2951" y1="14.554" x2="-1.30394" y2="14.554" gradientUnits="userSpaceOnUse">
<stop stop-color="#FF56F8"/>
<stop offset="1" stop-color="#B6E300"/>
</linearGradient>
</defs>
</svg>
